<svg xmlns="http://www.w3.org/2000/svg" width="402.98" height="393.153" viewBox="0 0 402.98 393.153">
  <g id="Layer_2" data-name="Layer 2" transform="translate(0.005 -0.007)">
    <g id="Layer_1" data-name="Layer 1">
      <g id="Group_229" data-name="Group 229" opacity="0.6">
        <path id="Path_247" data-name="Path 247" d="M347,290.91c-19.77,3.19-38.7-8.62-54.16-21.35C267.84,249,244.93,222.16,242,190c-1.27-14.12,1.42-28.27,4.42-42.13,4.26-19.66,9.58-40,22.8-55.16s36.67-23.28,54.07-13.18c21.6,12.54,23.09,44.32,41.53,61.18,6.26,5.73,14.16,9.4,20.53,15,11.13,9.8,16.6,24.84,17.48,39.63s-2.39,29.52-6.36,43.8c-4.38,15.77-10.19,32.13-22.76,42.61s-9.51,6.11-26.7,9.17" fill="#005785"/>
      </g>
      <g id="Group_230" data-name="Group 230" opacity="0.3">
        <path id="Path_248" data-name="Path 248" d="M19.71,220.1C34.44,209.75,50,211,65.65,210.94s32,4.77,42.57,16.26c4.87,5.27,8.36,11.73,13.41,16.83,16,16.18,42.48,14.62,63,24.53C208.22,280,222.26,308.32,217,334c-3.89,19.12-16.82,35.05-30.31,49.14-3.81,4-8,8-13.28,9.45-4.32,1.15-8.92.4-13.22-.83-24.85-7.12-42.46-29.12-55.13-51.65-4-7.17-7.85-14.65-13.73-20.41-9.71-9.49-24-13.05-37.59-12.4-8.2.39-16.5,2.16-24.56.54-13.6-2.75-23.85-15.1-27.39-28.54S.41,251.54,4.24,238.17c2.69-9.38,15.47-18.07,15.47-18.07" fill="#005785"/>
      </g>
      <circle id="Ellipse_26" data-name="Ellipse 26" cx="41" cy="41" r="41" transform="translate(26.99 110.95)" fill="#005785" opacity="0.6"/>
      <circle id="Ellipse_27" data-name="Ellipse 27" cx="34.5" cy="34.5" r="34.5" transform="translate(108.99 46.95)" fill="#005785" opacity="0.15"/>
      <g id="Group_231" data-name="Group 231" opacity="0.15">
        <path id="Path_249" data-name="Path 249" d="M51,247.05C35,185.29,41.49,117.4,70.93,60.79c7.78-15,17.32-29.51,30.92-39.49C122.48,6.15,149.4,3.44,174.9,1.3c14.52-1.3,29.38-2.52,43.49,1.12,14.55,3.76,27.3,12.43,39.29,21.49C267.05,31,276.28,38.52,283.25,48c9.85,13.38,14.56,29.73,20.15,45.38,14.05,39.31,35.15,76.73,65.6,105.29,6.75,6.33,14.07,12.38,18.57,20.47,5.82,10.47,6.19,23,5.8,35-1.23,37.24-11.32,78.56-43,98.21-4.56,2.83-9.6,5.16-14.95,5.6-3,.25-6-.1-9.05.11-5.86.4-11.34,2.89-17,4.56-18.77,5.59-38.89,2.08-58.14-1.47-38.19-7-77-14.27-111.5-32.14-24.54-12.72-46.07-30.43-67.4-48C61.79,272.25,52.16,260.74,51,247.05" fill="#003d5d"/>
      </g>
      <path id="Path_250" data-name="Path 250" d="M199.48,174.97,324.5,143.31V245.06L199.48,282.95Z" fill="#a26800" stroke="#56280a" stroke-miterlimit="10" stroke-width="13"/>
      <path id="Path_251" data-name="Path 251" d="M81.28,143.31l116.81,31.66V282.95L81.28,245.06Z" fill="#d08c00" stroke="#56280a" stroke-miterlimit="10" stroke-width="13"/>
      <path id="Path_252" data-name="Path 252" d="M266.99,121.95l-127,31,54.5,14.5,125-32Z" fill="#a26800" stroke="#56280a" stroke-miterlimit="10" stroke-width="6"/>
      <path id="Path_253" data-name="Path 253" d="M207.99,105.95l-127,31,54.5,14.5,125-32Z" fill="#a26800" stroke="#56280a" stroke-miterlimit="10" stroke-width="6"/>
    </g>
  </g>
</svg>
