<svg xmlns="http://www.w3.org/2000/svg" width="431.325" height="425.653" viewBox="0 0 431.325 425.653">
  <g id="Layer_2" data-name="Layer 2" transform="translate(0.005 -0.007)">
    <g id="Layer_1" data-name="Layer 1" transform="translate(-0.005 0.007)">
      <g id="Group_222" data-name="Group 222" transform="translate(257.084 87.277)" opacity="0.6">
        <path id="Path_236" data-name="Path 236" d="M353.712,311.665c-21.03,3.393-41.166-9.169-57.611-22.711-26.593-21.87-50.963-50.421-54.08-84.63-1.351-15.02,1.51-30.072,4.7-44.815,4.531-20.913,10.19-42.549,24.253-58.675s39.007-24.764,57.516-14.02c22.976,13.339,24.561,47.144,44.177,65.079,6.659,6.1,15.062,10,21.838,15.956,11.839,10.424,17.658,26.423,18.594,42.155s-2.542,31.4-6.765,46.591c-4.659,16.775-10.839,34.177-24.21,45.325s-10.116,6.5-28.4,9.754" transform="translate(-241.678 -82.056)" fill="#2e3192"/>
      </g>
      <g id="Group_223" data-name="Group 223" transform="translate(0 231.8)" opacity="0.3">
        <path id="Path_237" data-name="Path 237" d="M20.966,227.685c15.669-11.01,32.22-9.68,48.868-9.744s34.039,5.074,45.283,17.3c5.18,5.606,8.893,12.478,14.265,17.9,17.02,17.211,45.187,15.552,67.015,26.093,25.093,12.169,40.028,42.294,34.433,69.61-4.138,20.338-17.892,37.284-32.242,52.272-4.053,4.255-8.51,8.51-14.126,10.052-4.6,1.223-9.488.425-14.062-.883-26.434-7.574-45.166-30.976-58.643-54.941-4.255-7.627-8.35-15.584-14.6-21.711-10.329-10.095-25.529-13.882-39.985-13.19-8.723.415-17.551,2.3-26.125.574C16.573,318.091,5.67,304.954,1.9,290.658S.436,261.129,4.511,246.906c2.861-9.978,16.456-19.221,16.456-19.221" transform="translate(0.005 -217.92)" fill="#2e3192"/>
      </g>
      <circle id="Ellipse_24" data-name="Ellipse 24" cx="43.613" cy="43.613" r="43.613" transform="translate(28.716 125.459)" fill="#2e3192" opacity="0.6"/>
      <circle id="Ellipse_25" data-name="Ellipse 25" cx="36.699" cy="36.699" r="36.699" transform="translate(115.941 57.38)" fill="#2e3192" opacity="0.15"/>
      <g id="Group_224" data-name="Group 224" transform="translate(57.961)" opacity="0.15">
        <path id="Path_238" data-name="Path 238" d="M63.543,262.793c-17.02-65.7-10.116-137.912,21.2-198.13,8.276-15.956,18.424-31.391,32.89-42.007,21.945-16.115,50.58-19,77.705-21.275C210.784,0,226.591-1.3,241.6,2.574c15.477,4,29.04,13.222,41.794,22.859,9.967,7.542,19.785,15.541,27.2,25.625,10.478,14.233,15.488,31.625,21.434,48.272,14.945,41.815,37.39,81.62,69.78,112,7.18,6.733,14.967,13.169,19.753,21.774,6.191,11.137,6.584,24.466,6.17,37.23-1.308,39.613-12.041,83.566-45.74,104.468-4.851,3.01-10.212,5.489-15.9,5.957-3.191.266-6.382-.106-9.627.117-6.233.425-12.063,3.074-18.083,4.851-19.966,5.946-41.368,2.213-61.845-1.564-40.624-7.446-81.907-15.179-118.605-34.188-26.1-13.531-49.006-32.369-71.7-51.059C75.02,289.6,64.777,277.355,63.543,262.793" transform="translate(-54.483 -0.007)" fill="#2e3192"/>
      </g>
      <path id="Path_239" data-name="Path 239" d="M199.48,183.988,332.467,150.31V258.544l-132.987,40.3Z" transform="translate(12.718 9.571)" fill="#a26800" stroke="#56280a" stroke-miterlimit="10" stroke-width="13"/>
      <path id="Path_240" data-name="Path 240" d="M81.28,150.31l124.254,33.678V298.849L81.28,258.544Z" transform="translate(5.185 9.571)" fill="#d08c00" stroke="#56280a" stroke-miterlimit="10" stroke-width="13"/>
      <path id="Path_241" data-name="Path 241" d="M275.083,128.95,139.99,161.926l57.973,15.424L330.929,143.31Z" transform="translate(8.927 8.21)" fill="#a26800" stroke="#56280a" stroke-miterlimit="10" stroke-width="6"/>
      <path id="Path_242" data-name="Path 242" d="M216.083,112.95,80.99,145.925l57.973,15.424L271.929,127.31Z" transform="translate(5.167 7.19)" fill="#a26800" stroke="#56280a" stroke-miterlimit="10" stroke-width="6"/>
    </g>
  </g>
</svg>
