<svg width="532" height="398" viewBox="0 0 532 398" fill="none" xmlns="http://www.w3.org/2000/svg">
<path fill-rule="evenodd" clip-rule="evenodd" d="M324.773 120.522C323.877 119.152 322.95 117.83 321.992 116.557C322.148 102.391 327.082 89.9823 336.073 80.0322C343.059 86.1342 349.037 93.4108 353.813 101.825L324.773 120.522Z" fill="#005785"/>
<path fill-rule="evenodd" clip-rule="evenodd" d="M402.345 269.213C458.436 269.213 493.443 244.946 493.443 206.757C493.443 160.692 451.208 153.343 414.22 146.907C385.408 141.893 359.78 137.434 359.78 115.66C359.78 98.952 376.09 86.62 409.506 86.62C430.192 86.62 451.275 90.9959 470.37 103.328L486.68 73.0946C468.381 61.1605 437.352 54 409.904 54C355.802 54 321.989 79.4595 321.989 117.251C321.989 165.188 365.455 172.384 402.739 178.556C430.739 183.191 455.253 187.249 455.253 207.553C455.253 225.454 440.535 236.195 405.13 236.195C389.495 236.195 373.472 233.226 359.268 228.318L358.618 229.463C358.332 229.968 358.041 230.469 357.746 230.966C351.867 240.891 344.372 249.335 335.569 256.198C353.902 264.03 378.028 269.213 402.345 269.213Z" fill="#005785"/>
<path fill-rule="evenodd" clip-rule="evenodd" d="M267.887 56.8732C292.73 56.8732 314.822 63.5772 331.791 76.5332C323.341 85.9668 318.15 97.4549 316.81 110.434C303.732 96.7113 286.413 90.2888 267.489 90.2888C258.541 90.2888 250.076 91.6475 242.305 94.2318C238.682 88.9629 234.602 84.0787 230.103 79.6149C225.736 75.2821 220.99 71.361 215.905 67.8776C231.727 59.9835 247.633 56.8732 267.887 56.8732ZM332.046 251.939L332.172 251.84C340.434 245.4 347.467 237.477 352.993 228.15C353.27 227.682 353.543 227.211 353.813 226.736L351.905 225.533C344.101 222.316 337.037 218.51 331.138 214.316C328.26 212.268 326.006 210.595 324.25 209.227C323.6 210.193 322.935 211.135 322.254 212.052C320.913 213.858 319.512 215.567 318.055 217.182C304.84 231.829 287.02 238.67 267.489 238.67C226.118 238.67 195.089 210.028 195.089 164.281C195.089 149.765 198.324 136.909 204.098 126.154C201.207 120.667 197.627 115.788 193.484 111.58C188.683 106.704 183.074 102.675 176.809 99.6254C162.733 117.549 156.502 138.133 156.502 164.281C156.502 227.134 203.045 272.086 267.887 272.086C291.798 272.086 313.161 265.716 329.86 253.581C330.202 253.332 330.542 253.081 330.88 252.828C331.271 252.535 331.66 252.238 332.046 251.939Z" fill="#00A0B1"/>
<path fill-rule="evenodd" clip-rule="evenodd" d="M149.783 54C118.754 54 91.7037 65.9342 74.5981 89.4047V55.989H38V344H76.1893V235.001C93.6927 257.676 119.948 269.213 149.783 269.213C168.184 269.213 185.098 265.386 199.772 258.294L199.772 258.294C188.83 251.116 179.402 242.122 171.831 231.631L171.843 231.627C164.065 234.357 155.576 235.797 146.601 235.797C106.422 235.797 75.7915 206.359 75.7915 161.407C75.7915 116.853 106.422 87.4156 146.601 87.4156C187.177 87.4156 217.808 116.853 217.808 161.407C217.808 176.041 214.562 189.031 208.783 199.896C211.737 205.516 215.412 210.471 219.674 214.716C224.652 219.675 230.497 223.733 237.051 226.767C236.959 226.898 236.866 227.029 236.773 227.16C249.259 209.605 256.395 187.243 256.395 161.407C256.395 96.963 211.443 54 149.783 54Z" fill="#005785"/>
</svg>
