<svg width="1315" height="216" viewBox="0 0 1315 216" fill="none" xmlns="http://www.w3.org/2000/svg">
<path fill-rule="evenodd" clip-rule="evenodd" d="M175.817 65.4089C175.332 64.6652 174.83 63.9481 174.312 63.2572C174.396 55.5688 177.067 48.8346 181.934 43.4346C185.716 46.7462 188.952 50.6954 191.538 55.2619L175.817 65.4089Z" fill="#005785"/>
<path fill-rule="evenodd" clip-rule="evenodd" d="M217.811 146.105C248.176 146.105 267.127 132.936 267.127 112.21C267.127 87.2101 244.263 83.2215 224.24 79.7284C208.642 77.0074 194.768 74.5872 194.768 62.7703C194.768 53.7027 203.598 47.01 221.687 47.01C232.886 47.01 244.299 49.3848 254.636 56.0775L263.466 39.6696C253.56 33.1927 236.762 29.3066 221.903 29.3066C192.615 29.3066 174.31 43.1239 174.31 63.6338C174.31 89.6498 197.84 93.555 218.024 96.9048C233.182 99.4205 246.453 101.623 246.453 112.642C246.453 122.357 238.485 128.186 219.318 128.186C210.854 128.186 202.18 126.575 194.491 123.911L194.139 124.533C193.984 124.807 193.827 125.079 193.667 125.349C190.484 130.735 186.427 135.318 181.661 139.042C191.586 143.293 204.647 146.105 217.811 146.105Z" fill="#005785"/>
<path fill-rule="evenodd" clip-rule="evenodd" d="M145.022 30.866C158.47 30.866 170.43 34.5043 179.616 41.5358C175.042 46.6555 172.232 52.8902 171.506 59.9343C164.426 52.4867 155.051 49.0011 144.806 49.0011C139.962 49.0011 135.38 49.7385 131.173 51.141C129.211 48.2815 127.003 45.6308 124.567 43.2082C122.203 40.8567 119.633 38.7287 116.881 36.8382C125.446 32.554 134.057 30.866 145.022 30.866ZM179.751 136.733L179.823 136.677C184.295 133.182 188.103 128.882 191.094 123.82C191.244 123.566 191.392 123.311 191.538 123.053L190.505 122.4C186.28 120.654 182.456 118.588 179.263 116.312C177.705 115.201 176.484 114.293 175.534 113.55C175.182 114.075 174.822 114.586 174.453 115.084C173.727 116.064 172.969 116.992 172.18 117.868C165.026 125.817 155.379 129.53 144.806 129.53C122.41 129.53 105.612 113.985 105.612 89.1574C105.612 81.2798 107.363 74.3026 110.489 68.4658C108.924 65.4876 106.986 62.84 104.743 60.5562C102.144 57.91 99.1077 55.7233 95.7164 54.0682C88.0959 63.7955 84.7228 74.9667 84.7228 89.1574C84.7228 123.269 109.919 147.665 145.022 147.665C157.966 147.665 169.531 144.208 178.571 137.622C178.756 137.487 178.94 137.351 179.123 137.213C179.334 137.055 179.543 136.895 179.751 136.733Z" fill="#00A0B1"/>
<path fill-rule="evenodd" clip-rule="evenodd" d="M81.0857 29.3066C64.2881 29.3066 49.6441 35.7835 40.3839 48.5212V30.3861H20.5714V186.694H41.2453V127.539C50.7209 139.845 64.9342 146.105 81.0857 146.105C91.8126 146.105 101.606 143.697 109.957 139.261L109.957 139.261C109.361 139.578 108.758 139.884 108.147 140.18C102.224 136.284 97.1199 131.403 93.0213 125.709C88.8123 127.189 84.2191 127.97 79.3628 127.97C57.6122 127.97 41.03 111.994 41.03 87.5981C41.03 63.4179 57.6122 47.4418 79.3628 47.4418C101.329 47.4418 117.911 63.4179 117.911 87.5981C117.911 95.5402 116.154 102.59 113.025 108.487C114.624 111.536 116.614 114.225 118.921 116.53C121.616 119.221 124.78 121.423 128.328 123.069C128.226 123.216 128.123 123.361 128.019 123.506L128.019 123.506C134.876 113.945 138.8 101.729 138.8 87.5981C138.8 52.6232 114.465 29.3066 81.0857 29.3066Z" fill="#005785"/>
<path d="M359.6 54.2C352.3 54.2 346.1 56.7 341.9 61.8V54.7999H330V127.6H342.5V101.7C346.8 106.6 352.8 108.9 359.6 108.9C375.2 108.9 386.7 98.1 386.7 81.5C386.7 65 375.2 54.2 359.6 54.2ZM358.2 98.2C349.2 98.2 342.3 91.7 342.3 81.5C342.3 71.3 349.2 64.8 358.2 64.8C367.2 64.8 374 71.3 374 81.5C374 91.7 367.2 98.2 358.2 98.2Z" fill="#005785"/>
<path d="M418.271 54.2C409.671 54.2 401.371 56.4 395.671 60.7999L400.571 69.9C404.571 66.6 410.771 64.6 416.771 64.6C425.671 64.6 430.071 68.9 430.071 76.2V77H416.271C400.071 77 394.071 84 394.071 92.9C394.071 102.2 401.771 108.9 413.971 108.9C421.971 108.9 427.771 106.3 430.771 101.7V108.2H442.571V76.9C442.571 61.5 433.671 54.2 418.271 54.2ZM416.571 99.8C410.171 99.8 406.371 96.9 406.371 92.4C406.371 88.5 408.671 85.3 417.171 85.3H430.071V91.5C427.971 97 422.671 99.8 416.571 99.8Z" fill="#005785"/>
<path d="M500.202 54.7999V61.9C495.802 56.6 489.202 54.2 481.702 54.2C466.402 54.2 454.702 64.4 454.702 79.9C454.702 95.4 466.402 105.8 481.702 105.8C488.902 105.8 495.202 103.5 499.602 98.7V101.5C499.602 112.3 494.402 117.7 482.602 117.7C475.202 117.7 467.602 115.2 462.902 111.3L457.302 120.7C463.402 125.7 473.302 128.3 483.302 128.3C502.002 128.3 512.102 119.5 512.102 100.1V54.7999H500.202ZM483.602 95.2C474.102 95.2 467.302 89 467.302 79.9C467.302 70.9 474.102 64.8 483.602 64.8C493.002 64.8 499.802 70.9 499.802 79.9C499.802 89 493.002 95.2 483.602 95.2Z" fill="#005785"/>
<path d="M578.735 81.8C578.735 65.1 567.335 54.2 551.735 54.2C535.835 54.2 524.135 65.5999 524.135 81.5C524.135 97.4 535.735 108.9 553.635 108.9C562.835 108.9 570.335 105.9 575.135 100.2L568.435 92.5C564.635 96.4 559.935 98.3 553.935 98.3C544.635 98.3 538.135 93.3 536.635 85.5H578.535C578.635 84.3 578.735 82.8 578.735 81.8ZM551.735 64.2C559.935 64.2 565.835 69.5 566.835 77.2H536.535C537.735 69.4 543.635 64.2 551.735 64.2Z" fill="#005785"/>
<path d="M615.248 108.9C625.648 108.9 633.948 104.4 638.048 96.4L628.448 90.8C625.248 95.9 620.448 98.2 615.148 98.2C605.948 98.2 598.948 91.9 598.948 81.5C598.948 71.2 605.948 64.8 615.148 64.8C620.448 64.8 625.248 67.1 628.448 72.2L638.048 66.6C633.948 58.5 625.648 54.2 615.248 54.2C598.348 54.2 586.348 65.5 586.348 81.5C586.348 97.5 598.348 108.9 615.248 108.9Z" fill="#00A0B1"/>
<path d="M688.053 54.8V81.8C688.053 92.5 682.153 97.9 673.453 97.9C665.553 97.9 660.953 93.3 660.953 83.6V54.8H648.453V85.3C648.453 101.4 657.753 108.9 671.453 108.9C678.353 108.9 684.653 106.3 688.653 101.4V108.2H700.553V54.8H688.053Z" fill="#00A0B1"/>
<path d="M733.42 108.9C748.42 108.9 757.62 102.4 757.62 92.4C757.62 71.5 724.62 81.1 724.62 70.3C724.62 66.8 728.22 64.3 735.82 64.3C740.92 64.3 746.02 65.3 751.12 68.3L755.92 58.8C751.12 55.9 743.02 54.2 735.92 54.2C721.52 54.2 712.42 60.8 712.42 70.9C712.42 92.2 745.42 82.6 745.42 92.8C745.42 96.5 742.12 98.7 734.22 98.7C727.52 98.7 720.32 96.5 715.62 93.4L710.82 102.9C715.62 106.3 724.52 108.9 733.42 108.9Z" fill="#00A0B1"/>
<path d="M796.985 96.4C795.085 97.9 792.585 98.6 789.985 98.6C785.185 98.6 782.585 95.8 782.585 90.6V65.2H796.885V55.2H782.585V43H770.085V55.2H761.285V65.2H770.085V90.9C770.085 102.7 776.785 108.9 788.485 108.9C792.985 108.9 797.485 107.7 800.485 105.3L796.985 96.4Z" fill="#00A0B1"/>
<path d="M833.01 108.9C849.61 108.9 861.51 97.5 861.51 81.5C861.51 65.5 849.61 54.2 833.01 54.2C816.61 54.2 804.61 65.5 804.61 81.5C804.61 97.5 816.61 108.9 833.01 108.9ZM833.01 98.2C824.01 98.2 817.21 91.7 817.21 81.5C817.21 71.3 824.01 64.8 833.01 64.8C842.11 64.8 848.91 71.3 848.91 81.5C848.91 91.7 842.11 98.2 833.01 98.2Z" fill="#00A0B1"/>
<path d="M940.863 54.2C932.363 54.2 925.163 57.6 920.863 63.1C917.163 57.1 910.663 54.2 902.863 54.2C895.563 54.2 889.363 56.8 885.363 61.6V54.8H873.463V108.2H885.963V81.1C885.963 70.5 891.563 65.1 899.863 65.1C907.463 65.1 911.863 69.7 911.863 79.2V108.2H924.363V81.1C924.363 70.5 930.063 65.1 938.263 65.1C945.863 65.1 950.263 69.7 950.263 79.2V108.2H962.763V77.6C962.763 61.5 953.763 54.2 940.863 54.2Z" fill="#00A0B1"/>
<path d="M995.242 108.9C1010.24 108.9 1019.44 102.4 1019.44 92.4C1019.44 71.5 986.442 81.1 986.442 70.3C986.442 66.8 990.042 64.3 997.642 64.3C1002.74 64.3 1007.84 65.3 1012.94 68.3L1017.74 58.8C1012.94 55.9 1004.84 54.2 997.742 54.2C983.342 54.2 974.242 60.8 974.242 70.9C974.242 92.2 1007.24 82.6 1007.24 92.8C1007.24 96.5 1003.94 98.7 996.042 98.7C989.342 98.7 982.142 96.5 977.442 93.4L972.642 102.9C977.442 106.3 986.342 108.9 995.242 108.9Z" fill="#005785"/>
<path d="M1069.41 54.8V81.8C1069.41 92.5 1063.51 97.9 1054.81 97.9C1046.91 97.9 1042.31 93.3 1042.31 83.6V54.8H1029.81V85.3C1029.81 101.4 1039.11 108.9 1052.81 108.9C1059.71 108.9 1066.01 106.3 1070.01 101.4V108.2H1081.91V54.8H1069.41Z" fill="#005785"/>
<path d="M1127.87 54.2C1120.57 54.2 1114.37 56.7 1110.17 61.8V54.8H1098.27V127.6H1110.77V101.7C1115.07 106.6 1121.07 108.9 1127.87 108.9C1143.47 108.9 1154.97 98.1 1154.97 81.5C1154.97 65 1143.47 54.2 1127.87 54.2ZM1126.47 98.2C1117.47 98.2 1110.57 91.7 1110.57 81.5C1110.57 71.3 1117.47 64.8 1126.47 64.8C1135.47 64.8 1142.27 71.3 1142.27 81.5C1142.27 91.7 1135.47 98.2 1126.47 98.2Z" fill="#005785"/>
<path d="M1196.43 54.2C1189.13 54.2 1182.93 56.7 1178.73 61.8V54.8H1166.83V127.6H1179.33V101.7C1183.63 106.6 1189.63 108.9 1196.43 108.9C1212.03 108.9 1223.53 98.1 1223.53 81.5C1223.53 65 1212.03 54.2 1196.43 54.2ZM1195.03 98.2C1186.03 98.2 1179.13 91.7 1179.13 81.5C1179.13 71.3 1186.03 64.8 1195.03 64.8C1204.03 64.8 1210.83 71.3 1210.83 81.5C1210.83 91.7 1204.03 98.2 1195.03 98.2Z" fill="#005785"/>
<path d="M1235.38 108.2H1247.88V34H1235.38V108.2Z" fill="#005785"/>
<path d="M1302.29 54.8L1285.39 94.3L1268.59 54.8H1255.59L1278.89 108.4L1277.99 110.5C1275.59 115.8 1272.99 117.9 1268.59 117.9C1265.19 117.9 1261.79 116.5 1259.39 114.2L1254.39 123.4C1257.79 126.5 1263.39 128.3 1268.69 128.3C1277.59 128.3 1284.39 124.6 1289.29 112.5L1314.29 54.8H1302.29Z" fill="#005785"/>
</svg>
