<svg width="985" height="96" viewBox="0 0 985 96" fill="none" xmlns="http://www.w3.org/2000/svg">
<path d="M30.0578 21C22.7578 21 16.5578 23.5 12.3578 28.6V21.6H0.457825V94.4H12.9578V68.5C17.2578 73.4 23.2578 75.7 30.0578 75.7C45.6578 75.7 57.1578 64.9 57.1578 48.3C57.1578 31.8 45.6578 21 30.0578 21ZM28.6578 65C19.6578 65 12.7578 58.5 12.7578 48.3C12.7578 38.1 19.6578 31.6 28.6578 31.6C37.6578 31.6 44.4578 38.1 44.4578 48.3C44.4578 58.5 37.6578 65 28.6578 65Z" fill="#005785"/>
<path d="M88.7289 21C80.1289 21 71.8289 23.2 66.1289 27.6L71.0289 36.7C75.0289 33.4 81.2289 31.4 87.2289 31.4C96.1289 31.4 100.529 35.7 100.529 43V43.8H86.7289C70.5289 43.8 64.5289 50.8 64.5289 59.7C64.5289 69 72.2289 75.7 84.4289 75.7C92.4289 75.7 98.2289 73.1 101.229 68.5V75H113.029V43.7C113.029 28.3 104.129 21 88.7289 21ZM87.0289 66.6C80.6289 66.6 76.8289 63.7 76.8289 59.2C76.8289 55.3 79.1289 52.1 87.6289 52.1H100.529V58.3C98.4289 63.8 93.1289 66.6 87.0289 66.6Z" fill="#005785"/>
<path d="M170.659 21.6V28.7C166.259 23.4 159.659 21 152.159 21C136.859 21 125.159 31.2 125.159 46.7C125.159 62.2 136.859 72.6 152.159 72.6C159.359 72.6 165.659 70.3 170.059 65.5V68.3C170.059 79.1 164.859 84.5 153.059 84.5C145.659 84.5 138.059 82 133.359 78.1L127.759 87.5C133.859 92.5 143.759 95.1 153.759 95.1C172.459 95.1 182.559 86.3 182.559 66.9V21.6H170.659ZM154.059 62C144.559 62 137.759 55.8 137.759 46.7C137.759 37.7 144.559 31.6 154.059 31.6C163.459 31.6 170.259 37.7 170.259 46.7C170.259 55.8 163.459 62 154.059 62Z" fill="#005785"/>
<path d="M249.193 48.6C249.193 31.9 237.793 21 222.193 21C206.293 21 194.593 32.4 194.593 48.3C194.593 64.2 206.193 75.7 224.093 75.7C233.293 75.7 240.793 72.7 245.593 67L238.893 59.3C235.093 63.2 230.393 65.1 224.393 65.1C215.093 65.1 208.593 60.1 207.093 52.3H248.993C249.093 51.1 249.193 49.6 249.193 48.6ZM222.193 31C230.393 31 236.293 36.3 237.293 44H206.993C208.193 36.2 214.093 31 222.193 31Z" fill="#005785"/>
<path d="M285.706 75.7C296.106 75.7 304.406 71.2 308.506 63.2L298.906 57.6C295.706 62.7 290.906 65 285.606 65C276.406 65 269.406 58.7 269.406 48.3C269.406 38 276.406 31.6 285.606 31.6C290.906 31.6 295.706 33.9 298.906 39L308.506 33.4C304.406 25.3 296.106 21 285.706 21C268.806 21 256.806 32.3 256.806 48.3C256.806 64.3 268.806 75.7 285.706 75.7Z" fill="#00A0B1"/>
<path d="M358.511 21.6V48.6C358.511 59.3 352.611 64.7 343.911 64.7C336.011 64.7 331.411 60.1 331.411 50.4V21.6H318.911V52.1C318.911 68.2 328.211 75.7 341.911 75.7C348.811 75.7 355.111 73.1 359.111 68.2V75H371.011V21.6H358.511Z" fill="#00A0B1"/>
<path d="M403.878 75.7C418.878 75.7 428.078 69.2 428.078 59.2C428.078 38.3 395.078 47.9 395.078 37.1C395.078 33.6 398.678 31.1 406.278 31.1C411.378 31.1 416.478 32.1 421.578 35.1L426.378 25.6C421.578 22.7 413.478 21 406.378 21C391.978 21 382.878 27.6 382.878 37.7C382.878 59 415.878 49.4 415.878 59.6C415.878 63.3 412.578 65.5 404.678 65.5C397.978 65.5 390.778 63.3 386.078 60.2L381.278 69.7C386.078 73.1 394.978 75.7 403.878 75.7Z" fill="#00A0B1"/>
<path d="M467.443 63.2C465.543 64.7 463.043 65.4 460.443 65.4C455.643 65.4 453.043 62.6 453.043 57.4V32H467.343V22H453.043V9.79999H440.543V22H431.743V32H440.543V57.7C440.543 69.5 447.243 75.7 458.943 75.7C463.443 75.7 467.943 74.5 470.943 72.1L467.443 63.2Z" fill="#00A0B1"/>
<path d="M503.468 75.7C520.068 75.7 531.968 64.3 531.968 48.3C531.968 32.3 520.068 21 503.468 21C487.068 21 475.068 32.3 475.068 48.3C475.068 64.3 487.068 75.7 503.468 75.7ZM503.468 65C494.468 65 487.668 58.5 487.668 48.3C487.668 38.1 494.468 31.6 503.468 31.6C512.568 31.6 519.368 38.1 519.368 48.3C519.368 58.5 512.568 65 503.468 65Z" fill="#00A0B1"/>
<path d="M611.321 21C602.821 21 595.621 24.4 591.321 29.9C587.621 23.9 581.121 21 573.321 21C566.021 21 559.821 23.6 555.821 28.4V21.6H543.921V75H556.421V47.9C556.421 37.3 562.021 31.9 570.321 31.9C577.921 31.9 582.321 36.5 582.321 46V75H594.821V47.9C594.821 37.3 600.521 31.9 608.721 31.9C616.321 31.9 620.721 36.5 620.721 46V75H633.221V44.4C633.221 28.3 624.221 21 611.321 21Z" fill="#00A0B1"/>
<path d="M665.7 75.7C680.7 75.7 689.9 69.2 689.9 59.2C689.9 38.3 656.9 47.9 656.9 37.1C656.9 33.6 660.5 31.1 668.1 31.1C673.2 31.1 678.3 32.1 683.4 35.1L688.2 25.6C683.4 22.7 675.3 21 668.2 21C653.8 21 644.7 27.6 644.7 37.7C644.7 59 677.7 49.4 677.7 59.6C677.7 63.3 674.4 65.5 666.5 65.5C659.8 65.5 652.6 63.3 647.9 60.2L643.1 69.7C647.9 73.1 656.8 75.7 665.7 75.7Z" fill="#005785"/>
<path d="M739.865 21.6V48.6C739.865 59.3 733.965 64.7 725.265 64.7C717.365 64.7 712.765 60.1 712.765 50.4V21.6H700.265V52.1C700.265 68.2 709.565 75.7 723.265 75.7C730.165 75.7 736.465 73.1 740.465 68.2V75H752.365V21.6H739.865Z" fill="#005785"/>
<path d="M798.331 21C791.031 21 784.831 23.5 780.631 28.6V21.6H768.731V94.4H781.231V68.5C785.531 73.4 791.531 75.7 798.331 75.7C813.931 75.7 825.431 64.9 825.431 48.3C825.431 31.8 813.931 21 798.331 21ZM796.931 65C787.931 65 781.031 58.5 781.031 48.3C781.031 38.1 787.931 31.6 796.931 31.6C805.931 31.6 812.731 38.1 812.731 48.3C812.731 58.5 805.931 65 796.931 65Z" fill="#005785"/>
<path d="M866.886 21C859.586 21 853.386 23.5 849.186 28.6V21.6H837.286V94.4H849.786V68.5C854.086 73.4 860.086 75.7 866.886 75.7C882.486 75.7 893.986 64.9 893.986 48.3C893.986 31.8 882.486 21 866.886 21ZM865.486 65C856.486 65 849.586 58.5 849.586 48.3C849.586 38.1 856.486 31.6 865.486 31.6C874.486 31.6 881.286 38.1 881.286 48.3C881.286 58.5 874.486 65 865.486 65Z" fill="#005785"/>
<path d="M905.841 75H918.341V0.799988H905.841V75Z" fill="#005785"/>
<path d="M972.747 21.6L955.847 61.1L939.047 21.6H926.047L949.347 75.2L948.447 77.3C946.047 82.6 943.447 84.7 939.047 84.7C935.647 84.7 932.247 83.3 929.847 81L924.847 90.2C928.247 93.3 933.847 95.1 939.147 95.1C948.047 95.1 954.847 91.4 959.747 79.3L984.747 21.6H972.747Z" fill="#005785"/>
</svg>
