<svg xmlns="http://www.w3.org/2000/svg" width="48.12" height="43.098" viewBox="0 0 48.12 43.098"><defs><style>.a{fill:none;stroke:#005785;stroke-width:3px;}</style></defs><path class="a" d="M41.36,19.867l3.7-12.558a1.88,1.88,0,0,0-1.833-2.3H12.469L11.751,1.5A1.88,1.88,0,0,0,9.909,0H1.88A1.88,1.88,0,0,0,0,1.88V3.133a1.88,1.88,0,0,0,1.88,1.88H7.353l5.5,26.9a4.386,4.386,0,1,0,5.251.671H34.523a4.385,4.385,0,1,0,4.981-.815l.432-1.9a1.88,1.88,0,0,0-1.833-2.3H17.082l-.513-5.237H39.527C40.405,22.33,41.166,20.723,41.36,19.867Z" transform="translate(1.5 1.5)"/></svg>