<svg width="964" height="398" viewBox="0 0 964 398" fill="none" xmlns="http://www.w3.org/2000/svg">
<path fill-rule="evenodd" clip-rule="evenodd" d="M324.773 120.522C323.877 119.152 322.95 117.83 321.992 116.557C322.148 102.391 327.082 89.9823 336.073 80.0322C343.059 86.1342 349.037 93.4109 353.813 101.825L324.773 120.522Z" fill="#005785"/>
<path fill-rule="evenodd" clip-rule="evenodd" d="M402.345 269.213C458.436 269.213 493.443 244.946 493.443 206.757C493.443 160.692 451.208 153.343 414.22 146.907C385.408 141.893 359.78 137.434 359.78 115.66C359.78 98.952 376.09 86.62 409.506 86.62C430.192 86.62 451.275 90.9959 470.37 103.328L486.68 73.0946C468.381 61.1605 437.352 54 409.904 54C355.802 54 321.989 79.4595 321.989 117.251C321.989 165.188 365.455 172.384 402.739 178.556C430.739 183.191 455.253 187.249 455.253 207.553C455.253 225.454 440.535 236.195 405.13 236.195C389.495 236.195 373.472 233.226 359.268 228.318L358.618 229.463C358.332 229.968 358.041 230.469 357.746 230.966C351.867 240.891 344.372 249.335 335.569 256.198C353.902 264.03 378.028 269.213 402.345 269.213Z" fill="#005785"/>
<path fill-rule="evenodd" clip-rule="evenodd" d="M267.887 56.873C292.73 56.873 314.822 63.577 331.791 76.5331C323.341 85.9667 318.15 97.4548 316.81 110.434C303.732 96.7112 286.413 90.2887 267.489 90.2887C258.541 90.2887 250.076 91.6474 242.305 94.2317C238.682 88.9628 234.602 84.0786 230.103 79.6147C225.736 75.282 220.99 71.3609 215.905 67.8775C231.727 59.9834 247.633 56.873 267.887 56.873ZM332.046 251.938L332.172 251.84C340.434 245.4 347.467 237.477 352.993 228.15C353.27 227.682 353.543 227.211 353.813 226.736L351.905 225.533C344.101 222.316 337.037 218.51 331.138 214.315C328.26 212.268 326.006 210.594 324.25 209.227C323.6 210.193 322.935 211.135 322.254 212.052C320.913 213.858 319.512 215.567 318.055 217.182C304.84 231.829 287.02 238.67 267.489 238.67C226.118 238.67 195.089 210.028 195.089 164.28C195.089 149.765 198.324 136.909 204.098 126.154C201.207 120.667 197.627 115.788 193.484 111.58C188.683 106.704 183.074 102.675 176.809 99.6253C162.733 117.549 156.502 138.133 156.502 164.28C156.502 227.134 203.045 272.086 267.887 272.086C291.798 272.086 313.161 265.716 329.86 253.581C330.202 253.332 330.542 253.081 330.88 252.828C331.271 252.535 331.66 252.238 332.046 251.938Z" fill="#00A0B1"/>
<path fill-rule="evenodd" clip-rule="evenodd" d="M149.783 54C118.754 54 91.7037 65.9342 74.5981 89.4047V55.989H38V344H76.1893V235.001C93.6927 257.676 119.948 269.213 149.783 269.213C168.184 269.213 185.098 265.386 199.772 258.294L199.772 258.294C188.83 251.116 179.402 242.122 171.831 231.631L171.843 231.627C164.065 234.357 155.576 235.797 146.601 235.797C106.422 235.797 75.7915 206.359 75.7915 161.407C75.7915 116.853 106.422 87.4156 146.601 87.4156C187.177 87.4156 217.808 116.853 217.808 161.407C217.808 176.041 214.562 189.031 208.783 199.896C211.737 205.516 215.412 210.471 219.674 214.716C224.652 219.675 230.497 223.733 237.051 226.767C236.959 226.898 236.866 227.029 236.773 227.16C249.259 209.605 256.395 187.243 256.395 161.407C256.395 96.963 211.443 54 149.783 54Z" fill="#005785"/>
<path d="M620.7 46C613.4 46 607.2 48.5 603 53.6V46.6H591.1V119.4H603.6V93.5C607.9 98.4 613.9 100.7 620.7 100.7C636.3 100.7 647.8 89.9 647.8 73.3C647.8 56.8 636.3 46 620.7 46ZM619.3 90C610.3 90 603.4 83.5 603.4 73.3C603.4 63.1 610.3 56.6 619.3 56.6C628.3 56.6 635.1 63.1 635.1 73.3C635.1 83.5 628.3 90 619.3 90Z" fill="#005785"/>
<path d="M679.371 46C670.771 46 662.471 48.2 656.771 52.6L661.671 61.7C665.671 58.4 671.871 56.4 677.871 56.4C686.771 56.4 691.171 60.7 691.171 68V68.8H677.371C661.171 68.8 655.171 75.8 655.171 84.7C655.171 94 662.871 100.7 675.071 100.7C683.071 100.7 688.871 98.1 691.871 93.5V100H703.671V68.7C703.671 53.3 694.771 46 679.371 46ZM677.671 91.6C671.271 91.6 667.471 88.7 667.471 84.2C667.471 80.3 669.771 77.1 678.271 77.1H691.171V83.3C689.071 88.8 683.771 91.6 677.671 91.6Z" fill="#005785"/>
<path d="M761.302 46.6V53.7C756.902 48.4 750.302 46 742.802 46C727.502 46 715.802 56.2 715.802 71.7C715.802 87.2 727.502 97.6 742.802 97.6C750.002 97.6 756.302 95.3 760.702 90.5V93.3C760.702 104.1 755.502 109.5 743.702 109.5C736.302 109.5 728.702 107 724.002 103.1L718.402 112.5C724.502 117.5 734.402 120.1 744.402 120.1C763.102 120.1 773.202 111.3 773.202 91.9V46.6H761.302ZM744.702 87C735.202 87 728.402 80.8 728.402 71.7C728.402 62.7 735.202 56.6 744.702 56.6C754.102 56.6 760.902 62.7 760.902 71.7C760.902 80.8 754.102 87 744.702 87Z" fill="#005785"/>
<path d="M839.835 73.6C839.835 56.9 828.435 46 812.835 46C796.935 46 785.235 57.4 785.235 73.3C785.235 89.2 796.835 100.7 814.735 100.7C823.935 100.7 831.435 97.7 836.235 92L829.535 84.3C825.735 88.2 821.035 90.1 815.035 90.1C805.735 90.1 799.235 85.1 797.735 77.3H839.635C839.735 76.1 839.835 74.6 839.835 73.6ZM812.835 56C821.035 56 826.935 61.3 827.935 69H797.635C798.835 61.2 804.735 56 812.835 56Z" fill="#005785"/>
<path d="M615.6 202.7C626 202.7 634.3 198.2 638.4 190.2L628.8 184.6C625.6 189.7 620.8 192 615.5 192C606.3 192 599.3 185.7 599.3 175.3C599.3 165 606.3 158.6 615.5 158.6C620.8 158.6 625.6 160.9 628.8 166L638.4 160.4C634.3 152.3 626 148 615.6 148C598.7 148 586.7 159.3 586.7 175.3C586.7 191.3 598.7 202.7 615.6 202.7Z" fill="#00A0B1"/>
<path d="M688.405 148.6V175.6C688.405 186.3 682.505 191.7 673.805 191.7C665.905 191.7 661.305 187.1 661.305 177.4V148.6H648.805V179.1C648.805 195.2 658.105 202.7 671.805 202.7C678.705 202.7 685.005 200.1 689.005 195.2V202H700.905V148.6H688.405Z" fill="#00A0B1"/>
<path d="M733.772 202.7C748.772 202.7 757.972 196.2 757.972 186.2C757.972 165.3 724.972 174.9 724.972 164.1C724.972 160.6 728.572 158.1 736.172 158.1C741.272 158.1 746.372 159.1 751.472 162.1L756.272 152.6C751.472 149.7 743.372 148 736.272 148C721.872 148 712.772 154.6 712.772 164.7C712.772 186 745.772 176.4 745.772 186.6C745.772 190.3 742.472 192.5 734.572 192.5C727.872 192.5 720.672 190.3 715.972 187.2L711.172 196.7C715.972 200.1 724.872 202.7 733.772 202.7Z" fill="#00A0B1"/>
<path d="M797.337 190.2C795.437 191.7 792.937 192.4 790.337 192.4C785.537 192.4 782.937 189.6 782.937 184.4V159H797.237V149H782.937V136.8H770.437V149H761.637V159H770.437V184.7C770.437 196.5 777.137 202.7 788.837 202.7C793.337 202.7 797.837 201.5 800.837 199.1L797.337 190.2Z" fill="#00A0B1"/>
<path d="M833.362 202.7C849.962 202.7 861.862 191.3 861.862 175.3C861.862 159.3 849.962 148 833.362 148C816.962 148 804.962 159.3 804.962 175.3C804.962 191.3 816.962 202.7 833.362 202.7ZM833.362 192C824.362 192 817.562 185.5 817.562 175.3C817.562 165.1 824.362 158.6 833.362 158.6C842.462 158.6 849.262 165.1 849.262 175.3C849.262 185.5 842.462 192 833.362 192Z" fill="#00A0B1"/>
<path d="M941.215 148C932.715 148 925.515 151.4 921.215 156.9C917.515 150.9 911.015 148 903.215 148C895.915 148 889.715 150.6 885.715 155.4V148.6H873.815V202H886.315V174.9C886.315 164.3 891.915 158.9 900.215 158.9C907.815 158.9 912.215 163.5 912.215 173V202H924.715V174.9C924.715 164.3 930.415 158.9 938.615 158.9C946.215 158.9 950.615 163.5 950.615 173V202H963.115V171.4C963.115 155.3 954.115 148 941.215 148Z" fill="#00A0B1"/>
<path d="M606.6 293.9C621.6 293.9 630.8 287.4 630.8 277.4C630.8 256.5 597.8 266.1 597.8 255.3C597.8 251.8 601.4 249.3 609 249.3C614.1 249.3 619.2 250.3 624.3 253.3L629.1 243.8C624.3 240.9 616.2 239.2 609.1 239.2C594.7 239.2 585.6 245.8 585.6 255.9C585.6 277.2 618.6 267.6 618.6 277.8C618.6 281.5 615.3 283.7 607.4 283.7C600.7 283.7 593.5 281.5 588.8 278.4L584 287.9C588.8 291.3 597.7 293.9 606.6 293.9Z" fill="#005785"/>
<path d="M680.765 239.8V266.8C680.765 277.5 674.865 282.9 666.165 282.9C658.265 282.9 653.665 278.3 653.665 268.6V239.8H641.165V270.3C641.165 286.4 650.465 293.9 664.165 293.9C671.065 293.9 677.365 291.3 681.365 286.4V293.2H693.265V239.8H680.765Z" fill="#005785"/>
<path d="M739.231 239.2C731.931 239.2 725.731 241.7 721.531 246.8V239.8H709.631V312.6H722.131V286.7C726.431 291.6 732.431 293.9 739.231 293.9C754.831 293.9 766.331 283.1 766.331 266.5C766.331 250 754.831 239.2 739.231 239.2ZM737.831 283.2C728.831 283.2 721.931 276.7 721.931 266.5C721.931 256.3 728.831 249.8 737.831 249.8C746.831 249.8 753.631 256.3 753.631 266.5C753.631 276.7 746.831 283.2 737.831 283.2Z" fill="#005785"/>
<path d="M807.786 239.2C800.486 239.2 794.286 241.7 790.086 246.8V239.8H778.186V312.6H790.686V286.7C794.986 291.6 800.986 293.9 807.786 293.9C823.386 293.9 834.886 283.1 834.886 266.5C834.886 250 823.386 239.2 807.786 239.2ZM806.386 283.2C797.386 283.2 790.486 276.7 790.486 266.5C790.486 256.3 797.386 249.8 806.386 249.8C815.386 249.8 822.186 256.3 822.186 266.5C822.186 276.7 815.386 283.2 806.386 283.2Z" fill="#005785"/>
<path d="M846.741 293.2H859.241V219H846.741V293.2Z" fill="#005785"/>
<path d="M913.647 239.8L896.747 279.3L879.947 239.8H866.947L890.247 293.4L889.347 295.5C886.947 300.8 884.347 302.9 879.947 302.9C876.547 302.9 873.147 301.5 870.747 299.2L865.747 308.4C869.147 311.5 874.747 313.3 880.047 313.3C888.947 313.3 895.747 309.6 900.647 297.5L925.647 239.8H913.647Z" fill="#005785"/>
</svg>
