<svg width="533" height="398" viewBox="0 0 533 398" fill="none" xmlns="http://www.w3.org/2000/svg">
<path fill-rule="evenodd" clip-rule="evenodd" d="M325.315 120.522C324.419 119.152 323.492 117.83 322.534 116.557C322.69 102.391 327.624 89.9823 336.615 80.0322C343.601 86.1342 349.579 93.4108 354.355 101.825L325.315 120.522Z" fill="#FBFBFB"/>
<path fill-rule="evenodd" clip-rule="evenodd" d="M402.888 269.213C458.978 269.213 493.985 244.946 493.985 206.757C493.985 160.692 451.75 153.343 414.763 146.907C385.951 141.893 360.323 137.434 360.323 115.66C360.323 98.952 376.633 86.62 410.048 86.62C430.734 86.62 451.818 90.9959 470.912 103.328L487.222 73.0946C468.923 61.1605 437.895 54 410.446 54C356.344 54 322.531 79.4595 322.531 117.251C322.531 165.188 365.997 172.384 403.282 178.556C431.282 183.191 455.796 187.249 455.796 207.553C455.796 225.454 441.077 236.195 405.672 236.195C390.037 236.195 374.014 233.226 359.81 228.318L359.16 229.463C358.874 229.968 358.583 230.469 358.289 230.966C352.409 240.891 344.915 249.335 336.111 256.198C354.444 264.03 378.57 269.213 402.888 269.213Z" fill="#FBFBFB"/>
<path fill-rule="evenodd" clip-rule="evenodd" d="M268.429 56.8732C293.272 56.8732 315.364 63.5772 332.333 76.5332C323.883 85.9668 318.693 97.4549 317.353 110.434C304.274 96.7113 286.955 90.2888 268.032 90.2888C259.083 90.2888 250.618 91.6475 242.847 94.2318C239.224 88.9629 235.145 84.0787 230.645 79.6149C226.278 75.2821 221.532 71.361 216.447 67.8776C232.27 59.9835 248.175 56.8732 268.429 56.8732ZM332.588 251.939L332.714 251.84C340.976 245.4 348.009 237.477 353.535 228.15C353.812 227.682 354.086 227.211 354.355 226.736L352.447 225.533C344.643 222.316 337.579 218.51 331.681 214.316C328.802 212.268 326.548 210.595 324.792 209.227C324.142 210.193 323.477 211.135 322.796 212.052C321.455 213.858 320.054 215.567 318.597 217.182C305.382 231.829 287.562 238.67 268.032 238.67C226.66 238.67 195.631 210.028 195.631 164.281C195.631 149.765 198.866 136.909 204.64 126.154C201.749 120.667 198.169 115.788 194.026 111.58C189.225 106.704 183.616 102.675 177.352 99.6254C163.275 117.549 157.044 138.133 157.044 164.281C157.044 227.134 203.587 272.086 268.429 272.086C292.34 272.086 313.703 265.716 330.402 253.581C330.744 253.332 331.084 253.081 331.422 252.828C331.813 252.535 332.202 252.238 332.588 251.939Z" fill="#FBFBFB"/>
<path fill-rule="evenodd" clip-rule="evenodd" d="M150.325 54C119.297 54 92.2459 65.9342 75.1403 89.4047V55.989H38.5422V344H76.7315V235.001C94.235 257.676 120.49 269.213 150.325 269.213C168.727 269.213 185.64 265.386 200.314 258.294L200.314 258.294C189.372 251.116 179.944 242.122 172.373 231.631L172.385 231.627C164.607 234.357 156.118 235.797 147.143 235.797C106.965 235.797 76.3337 206.359 76.3337 161.407C76.3337 116.853 106.965 87.4156 147.143 87.4156C187.719 87.4156 218.35 116.853 218.35 161.407C218.35 176.041 215.104 189.031 209.325 199.896C212.279 205.516 215.954 210.471 220.216 214.716C225.194 219.675 231.04 223.733 237.594 226.767C237.564 226.809 237.534 226.852 237.504 226.894C249.873 209.379 256.937 187.113 256.937 161.407C256.937 96.963 211.985 54 150.325 54Z" fill="#FBFBFB"/>
</svg>
