<svg width="985" height="538" viewBox="0 0 985 538" fill="none" xmlns="http://www.w3.org/2000/svg">
<path fill-rule="evenodd" clip-rule="evenodd" d="M550.773 120.522C549.877 119.152 548.949 117.83 547.992 116.557C548.148 102.391 553.082 89.9822 562.073 80.0321C569.059 86.1341 575.037 93.4108 579.813 101.825L550.773 120.522Z" fill="#212121"/>
<path fill-rule="evenodd" clip-rule="evenodd" d="M628.345 269.213C684.436 269.213 719.443 244.946 719.443 206.757C719.443 160.692 677.208 153.343 640.22 146.907C611.408 141.893 585.78 137.434 585.78 115.66C585.78 98.952 602.09 86.62 635.506 86.62C656.192 86.62 677.275 90.9959 696.37 103.328L712.68 73.0946C694.381 61.1605 663.352 54 635.904 54C581.802 54 547.989 79.4595 547.989 117.251C547.989 165.188 591.455 172.384 628.739 178.556C656.739 183.191 681.253 187.249 681.253 207.553C681.253 225.454 666.535 236.195 631.13 236.195C615.495 236.195 599.472 233.226 585.268 228.318L584.618 229.463C584.332 229.968 584.041 230.469 583.746 230.966C577.867 240.891 570.372 249.335 561.569 256.198C579.902 264.03 604.028 269.213 628.345 269.213Z" fill="#212121"/>
<path fill-rule="evenodd" clip-rule="evenodd" d="M493.887 56.8732C518.73 56.8732 540.822 63.5772 557.79 76.5333C549.341 85.9668 544.15 97.4549 542.81 110.434C529.732 96.7113 512.413 90.2888 493.489 90.2888C484.541 90.2888 476.076 91.6475 468.305 94.2319C464.682 88.9629 460.602 84.0787 456.103 79.6149C451.736 75.2821 446.989 71.3611 441.905 67.8776C457.727 59.9835 473.633 56.8732 493.887 56.8732ZM558.046 251.939L558.172 251.84C566.434 245.4 573.467 237.477 578.993 228.15C579.27 227.682 579.543 227.211 579.813 226.736L577.905 225.533C570.101 222.316 563.037 218.51 557.138 214.316C554.26 212.268 552.006 210.595 550.25 209.227C549.6 210.193 548.935 211.135 548.254 212.052C546.913 213.858 545.512 215.567 544.055 217.182C530.84 231.829 513.02 238.67 493.489 238.67C452.118 238.67 421.089 210.028 421.089 164.281C421.089 149.765 424.324 136.909 430.098 126.154C427.207 120.667 423.627 115.788 419.484 111.58C414.683 106.704 409.074 102.675 402.809 99.6255C388.733 117.549 382.502 138.133 382.502 164.281C382.502 227.134 429.045 272.086 493.887 272.086C517.798 272.086 539.161 265.716 555.86 253.581C556.202 253.332 556.542 253.081 556.88 252.828C557.271 252.535 557.66 252.238 558.046 251.939Z" fill="#212121"/>
<path fill-rule="evenodd" clip-rule="evenodd" d="M375.783 54C344.754 54 317.704 65.9342 300.598 89.4047V55.989H264V344H302.189V235.001C319.693 257.676 345.948 269.213 375.783 269.213C394.184 269.213 411.098 265.386 425.772 258.294L425.772 258.294C414.83 251.116 405.402 242.122 397.831 231.631L397.843 231.627C390.065 234.357 381.576 235.797 372.601 235.797C332.422 235.797 301.791 206.359 301.791 161.407C301.791 116.853 332.422 87.4156 372.601 87.4156C413.177 87.4156 443.808 116.853 443.808 161.407C443.808 176.041 440.562 189.031 434.783 199.896C437.737 205.516 441.412 210.471 445.674 214.716C450.652 219.675 456.497 223.733 463.051 226.767C462.959 226.898 462.866 227.029 462.773 227.16C475.259 209.605 482.395 187.243 482.395 161.407C482.395 96.963 437.443 54 375.783 54Z" fill="#212121"/>
<path d="M29.6 463.2C22.3 463.2 16.1 465.7 11.9 470.8V463.8H0V536.6H12.5V510.7C16.8 515.6 22.8 517.9 29.6 517.9C45.2 517.9 56.7 507.1 56.7 490.5C56.7 474 45.2 463.2 29.6 463.2ZM28.2 507.2C19.2 507.2 12.3 500.7 12.3 490.5C12.3 480.3 19.2 473.8 28.2 473.8C37.2 473.8 44 480.3 44 490.5C44 500.7 37.2 507.2 28.2 507.2Z" fill="#212121"/>
<path d="M88.2711 463.2C79.6711 463.2 71.3711 465.4 65.6711 469.8L70.5711 478.9C74.5711 475.6 80.7711 473.6 86.7711 473.6C95.6711 473.6 100.071 477.9 100.071 485.2V486H86.2711C70.0711 486 64.0711 493 64.0711 501.9C64.0711 511.2 71.7711 517.9 83.9711 517.9C91.9711 517.9 97.7711 515.3 100.771 510.7V517.2H112.571V485.9C112.571 470.5 103.671 463.2 88.2711 463.2ZM86.5711 508.8C80.1711 508.8 76.3711 505.9 76.3711 501.4C76.3711 497.5 78.6711 494.3 87.1711 494.3H100.071V500.5C97.9711 506 92.6711 508.8 86.5711 508.8Z" fill="#212121"/>
<path d="M170.202 463.8V470.9C165.802 465.6 159.202 463.2 151.702 463.2C136.402 463.2 124.702 473.4 124.702 488.9C124.702 504.4 136.402 514.8 151.702 514.8C158.902 514.8 165.202 512.5 169.602 507.7V510.5C169.602 521.3 164.402 526.7 152.602 526.7C145.202 526.7 137.602 524.2 132.902 520.3L127.302 529.7C133.402 534.7 143.302 537.3 153.302 537.3C172.002 537.3 182.102 528.5 182.102 509.1V463.8H170.202ZM153.602 504.2C144.102 504.2 137.302 498 137.302 488.9C137.302 479.9 144.102 473.8 153.602 473.8C163.002 473.8 169.802 479.9 169.802 488.9C169.802 498 163.002 504.2 153.602 504.2Z" fill="#212121"/>
<path d="M248.735 490.8C248.735 474.1 237.335 463.2 221.735 463.2C205.835 463.2 194.135 474.6 194.135 490.5C194.135 506.4 205.735 517.9 223.635 517.9C232.835 517.9 240.335 514.9 245.135 509.2L238.435 501.5C234.635 505.4 229.935 507.3 223.935 507.3C214.635 507.3 208.135 502.3 206.635 494.5H248.535C248.635 493.3 248.735 491.8 248.735 490.8ZM221.735 473.2C229.935 473.2 235.835 478.5 236.835 486.2H206.535C207.735 478.4 213.635 473.2 221.735 473.2Z" fill="#212121"/>
<path d="M285.248 517.9C295.648 517.9 303.948 513.4 308.048 505.4L298.448 499.8C295.248 504.9 290.448 507.2 285.148 507.2C275.948 507.2 268.948 500.9 268.948 490.5C268.948 480.2 275.948 473.8 285.148 473.8C290.448 473.8 295.248 476.1 298.448 481.2L308.048 475.6C303.948 467.5 295.648 463.2 285.248 463.2C268.348 463.2 256.348 474.5 256.348 490.5C256.348 506.5 268.348 517.9 285.248 517.9Z" fill="#212121"/>
<path d="M358.053 463.8V490.8C358.053 501.5 352.153 506.9 343.453 506.9C335.553 506.9 330.953 502.3 330.953 492.6V463.8H318.453V494.3C318.453 510.4 327.753 517.9 341.453 517.9C348.353 517.9 354.653 515.3 358.653 510.4V517.2H370.553V463.8H358.053Z" fill="#212121"/>
<path d="M403.42 517.9C418.42 517.9 427.62 511.4 427.62 501.4C427.62 480.5 394.62 490.1 394.62 479.3C394.62 475.8 398.22 473.3 405.82 473.3C410.92 473.3 416.02 474.3 421.12 477.3L425.92 467.8C421.12 464.9 413.02 463.2 405.92 463.2C391.52 463.2 382.42 469.8 382.42 479.9C382.42 501.2 415.42 491.6 415.42 501.8C415.42 505.5 412.12 507.7 404.22 507.7C397.52 507.7 390.32 505.5 385.62 502.4L380.82 511.9C385.62 515.3 394.52 517.9 403.42 517.9Z" fill="#212121"/>
<path d="M466.985 505.4C465.085 506.9 462.585 507.6 459.985 507.6C455.185 507.6 452.585 504.8 452.585 499.6V474.2H466.885V464.2H452.585V452H440.085V464.2H431.285V474.2H440.085V499.9C440.085 511.7 446.785 517.9 458.485 517.9C462.985 517.9 467.485 516.7 470.485 514.3L466.985 505.4Z" fill="#212121"/>
<path d="M503.01 517.9C519.61 517.9 531.51 506.5 531.51 490.5C531.51 474.5 519.61 463.2 503.01 463.2C486.61 463.2 474.61 474.5 474.61 490.5C474.61 506.5 486.61 517.9 503.01 517.9ZM503.01 507.2C494.01 507.2 487.21 500.7 487.21 490.5C487.21 480.3 494.01 473.8 503.01 473.8C512.11 473.8 518.91 480.3 518.91 490.5C518.91 500.7 512.11 507.2 503.01 507.2Z" fill="#212121"/>
<path d="M610.863 463.2C602.363 463.2 595.163 466.6 590.863 472.1C587.163 466.1 580.663 463.2 572.863 463.2C565.563 463.2 559.363 465.8 555.363 470.6V463.8H543.463V517.2H555.963V490.1C555.963 479.5 561.563 474.1 569.863 474.1C577.463 474.1 581.863 478.7 581.863 488.2V517.2H594.363V490.1C594.363 479.5 600.063 474.1 608.263 474.1C615.863 474.1 620.263 478.7 620.263 488.2V517.2H632.763V486.6C632.763 470.5 623.763 463.2 610.863 463.2Z" fill="#212121"/>
<path d="M665.242 517.9C680.242 517.9 689.442 511.4 689.442 501.4C689.442 480.5 656.442 490.1 656.442 479.3C656.442 475.8 660.042 473.3 667.642 473.3C672.742 473.3 677.842 474.3 682.942 477.3L687.742 467.8C682.942 464.9 674.842 463.2 667.742 463.2C653.342 463.2 644.242 469.8 644.242 479.9C644.242 501.2 677.242 491.6 677.242 501.8C677.242 505.5 673.942 507.7 666.042 507.7C659.342 507.7 652.142 505.5 647.442 502.4L642.642 511.9C647.442 515.3 656.342 517.9 665.242 517.9Z" fill="#212121"/>
<path d="M739.407 463.8V490.8C739.407 501.5 733.507 506.9 724.807 506.9C716.907 506.9 712.307 502.3 712.307 492.6V463.8H699.807V494.3C699.807 510.4 709.107 517.9 722.807 517.9C729.707 517.9 736.007 515.3 740.007 510.4V517.2H751.907V463.8H739.407Z" fill="#212121"/>
<path d="M797.873 463.2C790.573 463.2 784.373 465.7 780.173 470.8V463.8H768.273V536.6H780.773V510.7C785.073 515.6 791.073 517.9 797.873 517.9C813.473 517.9 824.973 507.1 824.973 490.5C824.973 474 813.473 463.2 797.873 463.2ZM796.473 507.2C787.473 507.2 780.573 500.7 780.573 490.5C780.573 480.3 787.473 473.8 796.473 473.8C805.473 473.8 812.273 480.3 812.273 490.5C812.273 500.7 805.473 507.2 796.473 507.2Z" fill="#212121"/>
<path d="M866.428 463.2C859.128 463.2 852.928 465.7 848.728 470.8V463.8H836.828V536.6H849.328V510.7C853.628 515.6 859.628 517.9 866.428 517.9C882.028 517.9 893.528 507.1 893.528 490.5C893.528 474 882.028 463.2 866.428 463.2ZM865.028 507.2C856.028 507.2 849.128 500.7 849.128 490.5C849.128 480.3 856.028 473.8 865.028 473.8C874.028 473.8 880.828 480.3 880.828 490.5C880.828 500.7 874.028 507.2 865.028 507.2Z" fill="#212121"/>
<path d="M905.383 517.2H917.883V443H905.383V517.2Z" fill="#212121"/>
<path d="M972.289 463.8L955.389 503.3L938.589 463.8H925.589L948.889 517.4L947.989 519.5C945.589 524.8 942.989 526.9 938.589 526.9C935.189 526.9 931.789 525.5 929.389 523.2L924.389 532.4C927.789 535.5 933.389 537.3 938.689 537.3C947.589 537.3 954.389 533.6 959.289 521.5L984.289 463.8H972.289Z" fill="#212121"/>
</svg>
