<svg width="985" height="96" viewBox="0 0 985 96" fill="none" xmlns="http://www.w3.org/2000/svg">
<path d="M29.6 21C22.3 21 16.1 23.5 11.9 28.6V21.6H0V94.4H12.5V68.5C16.8 73.4 22.8 75.7 29.6 75.7C45.2 75.7 56.7 64.9 56.7 48.3C56.7 31.8 45.2 21 29.6 21ZM28.2 65C19.2 65 12.3 58.5 12.3 48.3C12.3 38.1 19.2 31.6 28.2 31.6C37.2 31.6 44 38.1 44 48.3C44 58.5 37.2 65 28.2 65Z" fill="#FBFBFB"/>
<path d="M88.2711 21C79.6711 21 71.3711 23.2 65.6711 27.6L70.5711 36.7C74.5711 33.4 80.7711 31.4 86.7711 31.4C95.6711 31.4 100.071 35.7 100.071 43V43.8H86.2711C70.0711 43.8 64.0711 50.8 64.0711 59.7C64.0711 69 71.7711 75.7 83.9711 75.7C91.9711 75.7 97.7711 73.1 100.771 68.5V75H112.571V43.7C112.571 28.3 103.671 21 88.2711 21ZM86.5711 66.6C80.1711 66.6 76.3711 63.7 76.3711 59.2C76.3711 55.3 78.6711 52.1 87.1711 52.1H100.071V58.3C97.9711 63.8 92.6711 66.6 86.5711 66.6Z" fill="#FBFBFB"/>
<path d="M170.202 21.6V28.7C165.802 23.4 159.202 21 151.702 21C136.402 21 124.702 31.2 124.702 46.7C124.702 62.2 136.402 72.6 151.702 72.6C158.902 72.6 165.202 70.3 169.602 65.5V68.3C169.602 79.1 164.402 84.5 152.602 84.5C145.202 84.5 137.602 82 132.902 78.1L127.302 87.5C133.402 92.5 143.302 95.1 153.302 95.1C172.002 95.1 182.102 86.3 182.102 66.9V21.6H170.202ZM153.602 62C144.102 62 137.302 55.8 137.302 46.7C137.302 37.7 144.102 31.6 153.602 31.6C163.002 31.6 169.802 37.7 169.802 46.7C169.802 55.8 163.002 62 153.602 62Z" fill="#FBFBFB"/>
<path d="M248.735 48.6C248.735 31.9 237.335 21 221.735 21C205.835 21 194.135 32.4 194.135 48.3C194.135 64.2 205.735 75.7 223.635 75.7C232.835 75.7 240.335 72.7 245.135 67L238.435 59.3C234.635 63.2 229.935 65.1 223.935 65.1C214.635 65.1 208.135 60.1 206.635 52.3H248.535C248.635 51.1 248.735 49.6 248.735 48.6ZM221.735 31C229.935 31 235.835 36.3 236.835 44H206.535C207.735 36.2 213.635 31 221.735 31Z" fill="#FBFBFB"/>
<path d="M285.248 75.7C295.648 75.7 303.948 71.2 308.048 63.2L298.448 57.6C295.248 62.7 290.448 65 285.148 65C275.948 65 268.948 58.7 268.948 48.3C268.948 38 275.948 31.6 285.148 31.6C290.448 31.6 295.248 33.9 298.448 39L308.048 33.4C303.948 25.3 295.648 21 285.248 21C268.348 21 256.348 32.3 256.348 48.3C256.348 64.3 268.348 75.7 285.248 75.7Z" fill="#FBFBFB"/>
<path d="M358.054 21.6V48.6C358.054 59.3 352.154 64.7 343.454 64.7C335.554 64.7 330.954 60.1 330.954 50.4V21.6H318.454V52.1C318.454 68.2 327.754 75.7 341.454 75.7C348.354 75.7 354.654 73.1 358.654 68.2V75H370.554V21.6H358.054Z" fill="#FBFBFB"/>
<path d="M403.42 75.7C418.42 75.7 427.62 69.2 427.62 59.2C427.62 38.3 394.62 47.9 394.62 37.1C394.62 33.6 398.22 31.1 405.82 31.1C410.92 31.1 416.02 32.1 421.12 35.1L425.92 25.6C421.12 22.7 413.02 21 405.92 21C391.52 21 382.42 27.6 382.42 37.7C382.42 59 415.42 49.4 415.42 59.6C415.42 63.3 412.12 65.5 404.22 65.5C397.52 65.5 390.32 63.3 385.62 60.2L380.82 69.7C385.62 73.1 394.52 75.7 403.42 75.7Z" fill="#FBFBFB"/>
<path d="M466.985 63.2C465.085 64.7 462.585 65.4 459.985 65.4C455.185 65.4 452.585 62.6 452.585 57.4V32H466.885V22H452.585V9.79999H440.085V22H431.285V32H440.085V57.7C440.085 69.5 446.785 75.7 458.485 75.7C462.985 75.7 467.485 74.5 470.485 72.1L466.985 63.2Z" fill="#FBFBFB"/>
<path d="M503.01 75.7C519.61 75.7 531.51 64.3 531.51 48.3C531.51 32.3 519.61 21 503.01 21C486.61 21 474.61 32.3 474.61 48.3C474.61 64.3 486.61 75.7 503.01 75.7ZM503.01 65C494.01 65 487.21 58.5 487.21 48.3C487.21 38.1 494.01 31.6 503.01 31.6C512.11 31.6 518.91 38.1 518.91 48.3C518.91 58.5 512.11 65 503.01 65Z" fill="#FBFBFB"/>
<path d="M610.863 21C602.363 21 595.163 24.4 590.863 29.9C587.163 23.9 580.663 21 572.863 21C565.563 21 559.363 23.6 555.363 28.4V21.6H543.463V75H555.963V47.9C555.963 37.3 561.563 31.9 569.863 31.9C577.463 31.9 581.863 36.5 581.863 46V75H594.363V47.9C594.363 37.3 600.063 31.9 608.263 31.9C615.863 31.9 620.263 36.5 620.263 46V75H632.763V44.4C632.763 28.3 623.763 21 610.863 21Z" fill="#FBFBFB"/>
<path d="M665.242 75.7C680.242 75.7 689.442 69.2 689.442 59.2C689.442 38.3 656.442 47.9 656.442 37.1C656.442 33.6 660.042 31.1 667.642 31.1C672.742 31.1 677.842 32.1 682.942 35.1L687.742 25.6C682.942 22.7 674.842 21 667.742 21C653.342 21 644.242 27.6 644.242 37.7C644.242 59 677.242 49.4 677.242 59.6C677.242 63.3 673.942 65.5 666.042 65.5C659.342 65.5 652.142 63.3 647.442 60.2L642.642 69.7C647.442 73.1 656.342 75.7 665.242 75.7Z" fill="#FBFBFB"/>
<path d="M739.407 21.6V48.6C739.407 59.3 733.507 64.7 724.807 64.7C716.907 64.7 712.307 60.1 712.307 50.4V21.6H699.807V52.1C699.807 68.2 709.107 75.7 722.807 75.7C729.707 75.7 736.007 73.1 740.007 68.2V75H751.907V21.6H739.407Z" fill="#FBFBFB"/>
<path d="M797.873 21C790.573 21 784.373 23.5 780.173 28.6V21.6H768.273V94.4H780.773V68.5C785.073 73.4 791.073 75.7 797.873 75.7C813.473 75.7 824.973 64.9 824.973 48.3C824.973 31.8 813.473 21 797.873 21ZM796.473 65C787.473 65 780.573 58.5 780.573 48.3C780.573 38.1 787.473 31.6 796.473 31.6C805.473 31.6 812.273 38.1 812.273 48.3C812.273 58.5 805.473 65 796.473 65Z" fill="#FBFBFB"/>
<path d="M866.428 21C859.128 21 852.928 23.5 848.728 28.6V21.6H836.828V94.4H849.328V68.5C853.628 73.4 859.628 75.7 866.428 75.7C882.028 75.7 893.528 64.9 893.528 48.3C893.528 31.8 882.028 21 866.428 21ZM865.028 65C856.028 65 849.128 58.5 849.128 48.3C849.128 38.1 856.028 31.6 865.028 31.6C874.028 31.6 880.828 38.1 880.828 48.3C880.828 58.5 874.028 65 865.028 65Z" fill="#FBFBFB"/>
<path d="M905.383 75H917.883V0.799988H905.383V75Z" fill="#FBFBFB"/>
<path d="M972.289 21.6L955.389 61.1L938.589 21.6H925.589L948.889 75.2L947.989 77.3C945.589 82.6 942.989 84.7 938.589 84.7C935.189 84.7 931.789 83.3 929.389 81L924.389 90.2C927.789 93.3 933.389 95.1 938.689 95.1C947.589 95.1 954.389 91.4 959.289 79.3L984.289 21.6H972.289Z" fill="#FBFBFB"/>
</svg>
