<svg width="380" height="268" viewBox="0 0 380 268" fill="none" xmlns="http://www.w3.org/2000/svg">
<path d="M37.3422 0C30.0422 0 23.8422 2.5 19.6422 7.6V0.599998H7.74219V73.4H20.2422V47.5C24.5422 52.4 30.5422 54.7 37.3422 54.7C52.9422 54.7 64.4422 43.9 64.4422 27.3C64.4422 10.8 52.9422 0 37.3422 0ZM35.9422 44C26.9422 44 20.0422 37.5 20.0422 27.3C20.0422 17.1 26.9422 10.6 35.9422 10.6C44.9422 10.6 51.7422 17.1 51.7422 27.3C51.7422 37.5 44.9422 44 35.9422 44Z" fill="#212121"/>
<path d="M96.0133 0C87.4133 0 79.1133 2.2 73.4133 6.6L78.3133 15.7C82.3133 12.4 88.5133 10.4 94.5133 10.4C103.413 10.4 107.813 14.7 107.813 22V22.8H94.0133C77.8133 22.8 71.8133 29.8 71.8133 38.7C71.8133 48 79.5133 54.7 91.7133 54.7C99.7133 54.7 105.513 52.1 108.513 47.5V54H120.313V22.7C120.313 7.3 111.413 0 96.0133 0ZM94.3133 45.6C87.9133 45.6 84.1133 42.7 84.1133 38.2C84.1133 34.3 86.4133 31.1 94.9133 31.1H107.813V37.3C105.713 42.8 100.413 45.6 94.3133 45.6Z" fill="#212121"/>
<path d="M177.944 0.599998V7.7C173.544 2.4 166.944 0 159.444 0C144.144 0 132.444 10.2 132.444 25.7C132.444 41.2 144.144 51.6 159.444 51.6C166.644 51.6 172.944 49.3 177.344 44.5V47.3C177.344 58.1 172.144 63.5 160.344 63.5C152.944 63.5 145.344 61 140.644 57.1L135.044 66.5C141.144 71.5 151.044 74.1 161.044 74.1C179.744 74.1 189.844 65.3 189.844 45.9V0.599998H177.944ZM161.344 41C151.844 41 145.044 34.8 145.044 25.7C145.044 16.7 151.844 10.6 161.344 10.6C170.744 10.6 177.544 16.7 177.544 25.7C177.544 34.8 170.744 41 161.344 41Z" fill="#212121"/>
<path d="M256.477 27.6C256.477 10.9 245.077 0 229.477 0C213.577 0 201.877 11.4 201.877 27.3C201.877 43.2 213.477 54.7 231.377 54.7C240.577 54.7 248.077 51.7 252.877 46L246.177 38.3C242.377 42.2 237.677 44.1 231.677 44.1C222.377 44.1 215.877 39.1 214.377 31.3H256.277C256.377 30.1 256.477 28.6 256.477 27.6ZM229.477 10C237.677 10 243.577 15.3 244.577 23H214.277C215.477 15.2 221.377 10 229.477 10Z" fill="#212121"/>
<path d="M32.2422 156.7C42.6422 156.7 50.9422 152.2 55.0422 144.2L45.4422 138.6C42.2422 143.7 37.4422 146 32.1422 146C22.9422 146 15.9422 139.7 15.9422 129.3C15.9422 119 22.9422 112.6 32.1422 112.6C37.4422 112.6 42.2422 114.9 45.4422 120L55.0422 114.4C50.9422 106.3 42.6422 102 32.2422 102C15.3422 102 3.34216 113.3 3.34216 129.3C3.34216 145.3 15.3422 156.7 32.2422 156.7Z" fill="#212121"/>
<path d="M105.048 102.6V129.6C105.048 140.3 99.1476 145.7 90.4476 145.7C82.5476 145.7 77.9476 141.1 77.9476 131.4V102.6H65.4476V133.1C65.4476 149.2 74.7476 156.7 88.4476 156.7C95.3476 156.7 101.648 154.1 105.648 149.2V156H117.548V102.6H105.048Z" fill="#212121"/>
<path d="M150.414 156.7C165.414 156.7 174.614 150.2 174.614 140.2C174.614 119.3 141.614 128.9 141.614 118.1C141.614 114.6 145.214 112.1 152.814 112.1C157.914 112.1 163.014 113.1 168.114 116.1L172.914 106.6C168.114 103.7 160.014 102 152.914 102C138.514 102 129.414 108.6 129.414 118.7C129.414 140 162.414 130.4 162.414 140.6C162.414 144.3 159.114 146.5 151.214 146.5C144.514 146.5 137.314 144.3 132.614 141.2L127.814 150.7C132.614 154.1 141.514 156.7 150.414 156.7Z" fill="#212121"/>
<path d="M213.979 144.2C212.079 145.7 209.579 146.4 206.979 146.4C202.179 146.4 199.579 143.6 199.579 138.4V113H213.879V103H199.579V90.8H187.079V103H178.279V113H187.079V138.7C187.079 150.5 193.779 156.7 205.479 156.7C209.979 156.7 214.479 155.5 217.479 153.1L213.979 144.2Z" fill="#212121"/>
<path d="M250.004 156.7C266.604 156.7 278.504 145.3 278.504 129.3C278.504 113.3 266.604 102 250.004 102C233.604 102 221.604 113.3 221.604 129.3C221.604 145.3 233.604 156.7 250.004 156.7ZM250.004 146C241.004 146 234.204 139.5 234.204 129.3C234.204 119.1 241.004 112.6 250.004 112.6C259.104 112.6 265.904 119.1 265.904 129.3C265.904 139.5 259.104 146 250.004 146Z" fill="#212121"/>
<path d="M357.857 102C349.357 102 342.157 105.4 337.857 110.9C334.157 104.9 327.657 102 319.857 102C312.557 102 306.357 104.6 302.357 109.4V102.6H290.457V156H302.957V128.9C302.957 118.3 308.557 112.9 316.857 112.9C324.457 112.9 328.857 117.5 328.857 127V156H341.357V128.9C341.357 118.3 347.057 112.9 355.257 112.9C362.857 112.9 367.257 117.5 367.257 127V156H379.757V125.4C379.757 109.3 370.757 102 357.857 102Z" fill="#212121"/>
<path d="M23.2422 247.9C38.2422 247.9 47.4422 241.4 47.4422 231.4C47.4422 210.5 14.4422 220.1 14.4422 209.3C14.4422 205.8 18.0422 203.3 25.6422 203.3C30.7422 203.3 35.8422 204.3 40.9422 207.3L45.7422 197.8C40.9422 194.9 32.8422 193.2 25.7422 193.2C11.3422 193.2 2.24221 199.8 2.24221 209.9C2.24221 231.2 35.2422 221.6 35.2422 231.8C35.2422 235.5 31.9422 237.7 24.0422 237.7C17.3422 237.7 10.1422 235.5 5.44221 232.4L0.642212 241.9C5.44221 245.3 14.3422 247.9 23.2422 247.9Z" fill="#212121"/>
<path d="M97.4071 193.8V220.8C97.4071 231.5 91.5071 236.9 82.8071 236.9C74.9071 236.9 70.3071 232.3 70.3071 222.6V193.8H57.8071V224.3C57.8071 240.4 67.1071 247.9 80.8071 247.9C87.7071 247.9 94.0071 245.3 98.0071 240.4V247.2H109.907V193.8H97.4071Z" fill="#212121"/>
<path d="M155.873 193.2C148.573 193.2 142.373 195.7 138.173 200.8V193.8H126.273V266.6H138.773V240.7C143.073 245.6 149.073 247.9 155.873 247.9C171.473 247.9 182.973 237.1 182.973 220.5C182.973 204 171.473 193.2 155.873 193.2ZM154.473 237.2C145.473 237.2 138.573 230.7 138.573 220.5C138.573 210.3 145.473 203.8 154.473 203.8C163.473 203.8 170.273 210.3 170.273 220.5C170.273 230.7 163.473 237.2 154.473 237.2Z" fill="#212121"/>
<path d="M224.428 193.2C217.128 193.2 210.928 195.7 206.728 200.8V193.8H194.828V266.6H207.328V240.7C211.628 245.6 217.628 247.9 224.428 247.9C240.028 247.9 251.528 237.1 251.528 220.5C251.528 204 240.028 193.2 224.428 193.2ZM223.028 237.2C214.028 237.2 207.128 230.7 207.128 220.5C207.128 210.3 214.028 203.8 223.028 203.8C232.028 203.8 238.828 210.3 238.828 220.5C238.828 230.7 232.028 237.2 223.028 237.2Z" fill="#212121"/>
<path d="M263.383 247.2H275.883V173H263.383V247.2Z" fill="#212121"/>
<path d="M330.289 193.8L313.389 233.3L296.589 193.8H283.589L306.889 247.4L305.989 249.5C303.589 254.8 300.989 256.9 296.589 256.9C293.189 256.9 289.789 255.5 287.389 253.2L282.389 262.4C285.789 265.5 291.389 267.3 296.689 267.3C305.589 267.3 312.389 263.6 317.289 251.5L342.289 193.8H330.289Z" fill="#212121"/>
</svg>
