<?xml version="1.0" encoding="UTF-8"?>
<svg version="1.1" xmlns="http://www.w3.org/2000/svg" width="3251" height="2028">
<path d="M0 0 C1072.83 0 2145.66 0 3251 0 C3251 669.24 3251 1338.48 3251 2028 C2178.17 2028 1105.34 2028 0 2028 C0 1358.76 0 689.52 0 0 Z " fill="#FEFEFE" transform="translate(0,0)"/>
<path d="M0 0 C1072.83 0 2145.66 0 3251 0 C3251 669.24 3251 1338.48 3251 2028 C2178.17 2028 1105.34 2028 0 2028 C0 1358.76 0 689.52 0 0 Z M211.32478998 188.22959221 C209.60776318 190.52417299 209.62501383 191.84872111 209.62504117 194.70053807 C209.61777127 195.67561892 209.61050137 196.65069977 209.60301117 197.65532853 C209.61030153 198.73203727 209.61759189 199.80874601 209.62510318 200.9180823 C209.62102046 202.06400104 209.61693773 203.20991978 209.6127313 204.39056334 C209.60438642 207.59600566 209.60961075 210.80110725 209.62034523 214.00653232 C209.62874108 217.49739933 209.61976259 220.98822778 209.61296466 224.47909227 C209.6034153 230.6290815 209.60512076 236.77898993 209.61399289 242.92897899 C209.62721806 252.13572481 209.62321328 261.34240737 209.61576103 270.54915679 C209.60357141 286.2371988 209.60568316 301.92521026 209.61546707 317.61325264 C209.6253344 333.51987734 209.6287095 349.42648349 209.62409019 365.33311081 C209.62380316 366.33634861 209.62351612 367.3395864 209.62322038 368.37322535 C209.62202899 372.45899444 209.62078986 376.54476352 209.61949047 380.63053259 C209.60737812 418.72147748 209.6099377 456.81240824 209.62167931 494.90335274 C209.63297988 531.61762196 209.63896885 568.33188489 209.63749123 605.04615593 C209.63740582 607.34923066 209.63732094 609.65230539 209.63723659 611.95538012 C209.63688877 621.20981202 209.63650368 630.46424392 209.63607101 639.71867581 C209.63487622 665.59066119 209.63469457 691.46264652 209.63527393 717.33463192 C209.63529996 718.51290634 209.63532599 719.69118076 209.6353528 720.90516047 C209.63625184 758.46573104 209.64155294 796.02629964 209.6499815 833.58686924 C209.65025469 834.80561335 209.65052788 836.02435747 209.65080934 837.28003322 C209.65526335 857.07330368 209.65997796 876.86657407 209.66470823 896.65984446 C209.68345465 975.17126277 209.68987237 1053.68267145 209.68432617 1132.1940918 C209.68397919 1137.15539356 209.68363357 1142.11669533 209.68328788 1147.0779971 C209.68320228 1148.30465017 209.68311667 1149.53130324 209.68302848 1150.79512762 C209.6820824 1164.37910985 209.68117068 1177.96309208 209.68030071 1191.54707432 C209.68022179 1192.76516258 209.68014288 1193.98325085 209.68006157 1195.23825088 C209.67584211 1260.95037538 209.68114024 1326.6624988 209.689812 1392.37462276 C209.69011529 1394.6903069 209.69041819 1397.00599105 209.6907207 1399.32167519 C209.69087029 1400.46640679 209.69101989 1401.61113838 209.69117401 1402.79055881 C209.69147543 1405.10007719 209.69177642 1407.40959557 209.69207697 1409.71911395 C209.69282584 1415.47298096 209.69358183 1421.22684796 209.69435314 1426.98071497 C209.69770477 1452.22802677 209.69976898 1477.47533778 209.69841743 1502.72264981 C209.69832662 1504.43120833 209.69832662 1504.43120833 209.69823397 1506.17428318 C209.69792198 1511.90975796 209.69758856 1517.64523274 209.69724765 1523.38070752 C209.69480013 1564.78075679 209.69882839 1606.1807967 209.71445765 1647.5808434 C209.71596768 1651.65332567 209.71744771 1655.72580796 209.7189045 1659.79829025 C209.71926524 1660.79778994 209.71962598 1661.79728962 209.71999765 1662.82707717 C209.72554853 1678.69588836 209.72439124 1694.56469174 209.72049966 1710.43350312 C209.7168231 1726.01216471 209.72023876 1741.59081109 209.73136387 1757.1694693 C209.73768572 1766.31913421 209.73847087 1775.46876034 209.73130427 1784.61842486 C209.72709767 1790.67988559 209.73002724 1796.74131456 209.7389889 1802.80277009 C209.74387818 1806.24859121 209.74553478 1809.69433366 209.73847352 1813.14015279 C209.73255672 1816.8292687 209.73871044 1820.51816325 209.748151 1824.20726687 C209.74348766 1825.28636635 209.73882431 1826.36546584 209.73401964 1827.47726531 C209.73904225 1828.44988766 209.74406486 1829.42251001 209.74923966 1830.42460576 C209.74938757 1831.26652842 209.74953548 1832.10845109 209.74968787 1832.97588656 C209.81749439 1835.22747957 209.81749439 1835.22747957 212 1837 C214.59695109 1837.19685005 217.0871704 1837.26678034 219.68533161 1837.25028767 C220.89811468 1837.25442893 220.89811468 1837.25442893 222.13539842 1837.25865385 C224.88130783 1837.26553893 227.62699657 1837.25800719 230.37290239 1837.25069833 C232.35821025 1837.25267875 234.34351739 1837.25553655 236.32882285 1837.25919722 C241.84122771 1837.26677171 247.35356283 1837.2617304 252.86596596 1837.25481732 C258.86389038 1837.2494827 264.86180422 1837.25570517 270.85972756 1837.26049101 C281.43139278 1837.26730449 292.00303485 1837.26666025 302.57469887 1837.26112393 C313.98510079 1837.25518832 325.39549097 1837.25362832 336.80589396 1837.25737235 C337.52795928 1837.25760653 338.2500246 1837.25784071 338.99397069 1837.25808199 C342.68041146 1837.25929692 346.36685219 1837.26058141 350.05329292 1837.26188921 C377.01945878 1837.27130248 403.98561758 1837.27079166 430.95178413 1837.26532745 C458.29669407 1837.2598163 485.64159909 1837.25864066 512.98650932 1837.26280212 C513.84784804 1837.26293115 514.70918676 1837.26306018 515.59662665 1837.26319312 C523.48985751 1837.26437614 531.38308837 1837.26560393 539.27631921 1837.26688554 C559.07228698 1837.27009456 578.8682548 1837.27260624 598.66422272 1837.27464628 C599.57150027 1837.27474008 600.47877782 1837.27483389 601.41354864 1837.27493053 C646.1754339 1837.27949195 690.93731828 1837.27641408 735.69920349 1837.27259064 C737.66086742 1837.27242336 739.62253135 1837.2722561 741.58419528 1837.27208885 C742.55639683 1837.27200593 743.52859838 1837.27192302 744.53026058 1837.2718376 C757.35033005 1837.27074462 770.17039951 1837.26967141 782.99046898 1837.26865101 C784.4603058 1837.26853353 784.4603058 1837.26853353 785.9598363 1837.26841367 C831.3286257 1837.26481434 876.69741467 1837.26566705 922.06620414 1837.26751192 C927.01263122 1837.26771152 931.95905829 1837.26790251 936.90548537 1837.26809447 C951.81389554 1837.26867563 966.7223057 1837.26926951 981.63071587 1837.26988967 C1027.09521326 1837.27177891 1072.55971065 1837.27297926 1118.02420807 1837.27358627 C1119.54278692 1837.27360688 1119.54278692 1837.27360688 1121.09204414 1837.2736279 C1186.67660498 1837.27450565 1252.26116532 1837.27230249 1317.84572601 1837.26788712 C1318.89305033 1837.26781688 1319.94037465 1837.26774664 1321.01943607 1837.26767428 C1356.10177728 1837.26532144 1391.18411849 1837.26280937 1426.2664597 1837.26028102 C1532.3635817 1837.25263987 1638.46070194 1837.24845282 1827.93411339 1837.26051168 C1863.00750025 1837.26303802 1898.08088711 1837.265535 1933.15427399 1837.26788712 C1934.20130144 1837.2679576 1935.2483289 1837.26802809 1936.32708446 1837.26810072 C2001.87665368 1837.27250998 2067.42622256 1837.2744757 2132.97579193 1837.27358627 C2134.49387237 1837.273566 2134.49387237 1837.273566 2136.04262111 1837.27354533 C2181.48169255 1837.27293194 2226.92076396 1837.27165545 2272.35983537 1837.26976527 C2287.26175449 1837.26914614 2302.16367361 1837.26855748 2317.06559273 1837.26797917 C2322.00916943 1837.26778719 2326.95274612 1837.26759248 2331.89632282 1837.26739145 C2377.26739245 1837.26555213 2422.63846147 1837.26502453 2468.00953102 1837.26865101 C2468.98880351 1837.26872895 2469.96807601 1837.2688069 2470.97702342 1837.2688872 C2483.78995053 1837.26991086 2496.60287762 1837.27099613 2509.41580472 1837.27208885 C2510.38724357 1837.27217167 2511.35868241 1837.2722545 2512.35955879 1837.27233984 C2514.31944992 1837.27250696 2516.27934106 1837.27267422 2518.23923219 1837.27284163 C2562.93808089 1837.27664973 2607.63692855 1837.27926766 2652.33577728 1837.27464628 C2653.69491003 1837.27450622 2653.69491003 1837.27450622 2655.0815 1837.27436333 C2674.84463041 1837.2723035 2694.6077607 1837.26966462 2714.37089096 1837.26645572 C2722.25175752 1837.26518385 2730.1326241 1837.26398267 2738.01349068 1837.26280212 C2738.87318405 1837.26267129 2739.73287742 1837.26254046 2740.61862211 1837.26240566 C2767.93117431 1837.25828197 2795.24372144 1837.26030127 2822.55627326 1837.26583567 C2849.42896545 1837.27125386 2876.30164967 1837.27063227 2903.17434097 1837.26109894 C2906.84759597 1837.25979651 2910.520851 1837.25856366 2914.19410604 1837.25737235 C2914.91327214 1837.25713637 2915.63243823 1837.2569004 2916.37339724 1837.25665727 C2927.75187943 1837.25310608 2939.1303495 1837.25625621 2950.50883027 1837.26221506 C2961.61817963 1837.26789716 2972.72750925 1837.26640578 2983.83685825 1837.25754145 C2989.76071515 1837.25302063 2995.68452605 1837.2517454 3001.60838106 1837.25917448 C3006.96999871 1837.26584107 3012.33152988 1837.26351126 3017.69314189 1837.25362507 C3019.6284911 1837.25169448 3021.56384717 1837.2531917 3023.49919048 1837.25834307 C3026.10445797 1837.26480491 3028.70941507 1837.25918376 3031.31466839 1837.25028767 C3032.07452037 1837.25511107 3032.83437235 1837.25993448 3033.61725015 1837.26490405 C3037.76365587 1837.36900428 3037.76365587 1837.36900428 3041 1835 C3041.30243893 1832.89380969 3041.30243893 1832.89380969 3041.25076034 1830.42460576 C3041.25578294 1829.45198341 3041.26080555 1828.47936106 3041.26598036 1827.47726531 C3041.26131701 1826.39816582 3041.25665366 1825.31906634 3041.251849 1824.20726687 C3041.25624229 1822.49049223 3041.25624229 1822.49049223 3041.26072434 1820.73903527 C3041.26687324 1817.53293076 3041.26395854 1814.32697554 3041.25738853 1811.12087634 C3041.25242754 1807.63096121 3041.25903247 1804.14106541 3041.26419219 1800.65115324 C3041.27166383 1794.50128567 3041.27161967 1788.35145267 3041.26680271 1782.20158298 C3041.25962696 1772.99497429 3041.26390938 1763.78839567 3041.27048406 1754.58178782 C3041.28134371 1738.89432581 3041.28263281 1723.20687579 3041.27878571 1707.51941109 C3041.27491585 1691.61236767 3041.27535433 1675.7053332 3041.2810955 1659.79829025 C3041.28163374 1658.29362732 3041.28163374 1658.29362732 3041.28218286 1656.75856715 C3041.28365769 1652.67334815 3041.28516208 1648.58812916 3041.28670432 1644.50291018 C3041.30235987 1602.98428394 3041.30501605 1561.46566384 3041.30254826 1519.94703518 C3041.30220983 1514.20557339 3041.30188773 1508.4641116 3041.30158257 1502.72264981 C3041.30152153 1501.58234208 3041.30146049 1500.44203434 3041.30139759 1499.26717183 C3041.30012701 1474.02340398 3041.30272468 1448.77963697 3041.30610864 1423.53586937 C3041.30687938 1417.77602974 3041.3076241 1412.0161901 3041.30837366 1406.25635047 C3041.30867535 1403.94479204 3041.30897723 1401.63323362 3041.3092793 1399.32167519 C3041.30942898 1398.17589862 3041.30957866 1397.03012206 3041.30973287 1395.84962499 C3041.3100364 1393.53209612 3041.31034108 1391.21456725 3041.31064692 1388.89703838 C3041.31932343 1323.11371695 3041.32396132 1257.33039626 3041.31969929 1191.54707432 C3041.31962123 1190.32825995 3041.31954317 1189.10944559 3041.31946275 1187.85369746 C3041.31858991 1174.26179733 3041.31766065 1160.66989721 3041.31671212 1147.0779971 C3041.31662661 1145.85078583 3041.3165411 1144.62357457 3041.316453 1143.35917509 C3041.31593421 1135.91473557 3041.31593421 1135.91473557 3041.31541077 1128.47029605 C3041.30987394 1049.95895251 3041.31741871 971.44762072 3041.33618164 892.9362793 C3041.3409036 873.15314264 3041.345584 853.37000597 3041.3500185 833.58686924 C3041.35029182 832.36885142 3041.35056515 831.15083361 3041.35084675 829.89590616 C3041.35921378 792.3754814 3041.36389731 754.85505761 3041.36472607 717.33463192 C3041.36475243 716.15721591 3041.3647788 714.97979989 3041.36480596 713.76670461 C3041.36534667 687.92375112 3041.36497448 662.08079771 3041.36376625 636.23784425 C3041.3633406 626.9915427 3041.36297548 617.74524115 3041.36263681 608.4989396 C3041.36255151 606.19856852 3041.36246257 603.89819744 3041.36236999 601.59782636 C3041.36091929 564.89404212 3041.36805994 528.19026586 3041.37937395 491.48648354 C3041.39100499 453.50837468 3041.39160858 415.53028009 3041.37953053 377.55217118 C3041.37827861 373.47915107 3041.37707514 369.40613095 3041.37590981 365.33311081 C3041.37561951 364.33348092 3041.37532922 363.33385103 3041.37503013 362.30392933 C3041.37069422 346.43583409 3041.3764538 330.56775902 3041.38635 314.69966694 C3041.39585593 299.1199958 3041.39475447 283.54035598 3041.38214377 267.96068668 C3041.37505991 258.81149669 3041.3762933 249.66239644 3041.38949216 240.51321271 C3041.39742756 234.45078372 3041.39464817 228.38842324 3041.38284252 222.32600064 C3041.3764413 218.88041599 3041.37487101 215.43500972 3041.38640973 211.98943445 C3041.39629952 208.29881276 3041.38804583 204.60868275 3041.37489682 200.9180823 C3041.38218719 199.84137355 3041.38947755 198.76466481 3041.39698883 197.65532853 C3041.38971893 196.68024768 3041.38244903 195.70516683 3041.37495883 194.70053807 C3041.37497094 193.43761213 3041.37497094 193.43761213 3041.37498329 192.14917252 C3040.90883948 189.47752425 3040.1689893 188.59202268 3038 187 C3035.51385998 186.70743973 3033.27860014 186.60048657 3030.79218131 186.62740451 C3030.04808753 186.62357025 3029.30399374 186.61973599 3028.53735166 186.61578555 C3026.01895698 186.60652437 3023.50111618 186.61882823 3020.98273945 186.63085651 C3019.16125473 186.62863938 3017.33977122 186.62510554 3015.51829132 186.62036702 C3010.4747987 186.61111248 3005.43148592 186.62072429 3000.38800661 186.63320142 C2994.91562423 186.64346351 2989.44326093 186.6363994 2983.97087497 186.63146895 C2974.36729409 186.62523306 2964.76376883 186.63020397 2955.1601944 186.64238358 C2940.87990592 186.66044422 2926.59965272 186.66139513 2912.3193549 186.65875761 C2888.30087828 186.65453153 2864.2824254 186.66484004 2840.26395607 186.68280983 C2816.47241918 186.70056737 2792.68089246 186.71213312 2768.88934898 186.71536827 C2767.78170562 186.71552312 2767.78170562 186.71552312 2766.65168562 186.71568111 C2759.90743644 186.71662068 2753.16318725 186.71748376 2746.41893805 186.71825503 C2729.65226848 186.7201734 2712.88559916 186.72305149 2696.11892986 186.72658062 C2695.3553489 186.72674057 2694.59176793 186.72690052 2693.80504815 186.72706532 C2656.64647684 186.73493298 2619.48791224 186.75385692 2582.3293457 186.77368164 C2569.43186447 186.78055652 2556.53438322 186.78738256 2543.63690186 186.79400635 C2542.83701653 186.7944172 2542.0371312 186.79482804 2541.21300692 186.79525134 C2504.03967207 186.81427786 2466.86633607 186.8254585 2429.69299763 186.83461073 C2427.28015954 186.83520493 2424.86732145 186.8358025 2422.45448337 186.83640077 C2406.46469794 186.84036006 2390.47491248 186.84418402 2374.48512699 186.84791735 C2342.6684681 186.85534717 2310.85180944 186.86357223 2279.03515089 186.87234349 C2277.5199029 186.87276121 2276.00465492 186.87317837 2274.48940693 186.87359498 C2192.6771122 186.89609417 2110.86482445 186.93234818 1972 187 C1971.98541748 188.05799805 1971.97083496 189.11599609 1971.95581055 190.20605469 C1971.89718511 194.18733029 1971.81996571 198.1680776 1971.73754883 202.14892578 C1971.70459803 203.8614027 1971.67647658 205.57398045 1971.65356445 207.28662109 C1971.43772592 223.00150307 1970.58326898 236.24827512 1959 248.03515625 C1946.16674889 259.14629829 1929.63874916 257.56737103 1913.75205994 257.50120544 C1911.16726439 257.50510083 1908.58247099 257.51074317 1905.99768263 257.51797634 C1900.39000905 257.53083915 1894.78249377 257.52895076 1889.17481995 257.51719666 C1880.83591189 257.49976583 1872.49712759 257.50533122 1864.158213 257.51536357 C1849.26280713 257.53253351 1834.36747499 257.52702877 1819.47207066 257.51200638 C1806.43734799 257.49894549 1793.40265087 257.49376039 1780.36792183 257.49632454 C1779.07009487 257.49656516 1779.07009487 257.49656516 1777.74604919 257.49681065 C1774.23370214 257.49747425 1770.72135511 257.49817667 1767.20900808 257.49893599 C1734.27353315 257.50595704 1701.33810319 257.49047855 1668.4026397 257.46431253 C1639.15081794 257.44119614 1609.89904563 257.43581037 1580.6472168 257.44604492 C1573.15574871 257.448647 1565.66428062 257.45123203 1558.17281246 257.45364285 C1556.78931568 257.45408902 1556.78931568 257.45408902 1555.37786947 257.4545442 C1530.9235702 257.46216124 1506.46927498 257.45574503 1482.01497751 257.44494683 C1479.3832862 257.44379904 1476.75159489 257.44265586 1474.11990358 257.44152 C1472.37416599 257.44076475 1470.62842841 257.43999911 1468.88269083 257.43922299 C1455.85647629 257.43356785 1442.83027456 257.43489245 1429.80405998 257.43945122 C1414.99137195 257.44456157 1400.17873177 257.43869471 1385.36605566 257.41855692 C1377.07900219 257.40758011 1368.79204283 257.40476857 1360.50498651 257.41384545 C1354.31527662 257.41968727 1348.12568488 257.40981955 1341.93599493 257.3938458 C1339.43349776 257.38980134 1336.93098627 257.39080112 1334.42849445 257.39736467 C1331.02438749 257.40552862 1327.62080821 257.39518514 1324.21673489 257.38031673 C1323.24765482 257.38705439 1322.27857476 257.39379204 1321.28012863 257.40073386 C1309.16050561 257.29852433 1299.01829491 254.47521257 1290.03125 246.18359375 C1281.89802277 237.65404401 1279.91987776 227.58605775 1279.68359375 216.19921875 C1279.6524221 214.9446563 1279.6524221 214.9446563 1279.62062073 213.66474915 C1279.55548966 211.00574579 1279.4964105 208.34664772 1279.4375 205.6875 C1279.39428008 203.87954769 1279.3506647 202.07160478 1279.30664062 200.26367188 C1279.19984584 195.84254378 1279.09847675 191.42132088 1279 187 C1150.22256538 186.93484459 1150.22256538 186.93484459 974.23957825 186.87297058 C972.72203678 186.87255223 971.20449532 186.87213387 969.68695386 186.87171552 C937.83526837 186.86294798 905.98358275 186.85479777 874.13189692 186.84736097 C858.13238867 186.8436247 842.13288046 186.83976978 826.13337227 186.83580268 C823.71986579 186.83520493 821.3063593 186.83461057 818.89285282 186.83401636 C781.71626573 186.82483346 744.53968159 186.81310147 707.36309814 186.79400635 C706.56341186 186.79359565 705.76372557 186.79318495 704.93980637 186.79276181 C692.04601429 186.78612447 679.15222233 186.77927373 666.25843038 186.77239468 C629.13264446 186.7525907 592.00686081 186.73435761 554.88107014 186.72658062 C553.73653314 186.72633971 553.73653314 186.72633971 552.56887418 186.72609394 C535.82098842 186.72259712 519.07310264 186.71991234 502.32521663 186.71799705 C495.58702808 186.71721216 488.84883955 186.7163103 482.11065102 186.71536827 C481.37317318 186.71526799 480.63569535 186.71516771 479.8758697 186.71506439 C456.09124586 186.71177194 432.30663881 186.69894821 408.52202175 186.68115337 C383.90917945 186.66278355 359.29635576 186.65494995 334.68350669 186.65949587 C320.48024228 186.66178593 306.2770387 186.65562046 292.07378521 186.63760737 C282.60246257 186.62641099 273.13118005 186.62597119 263.6598547 186.63450456 C258.25269156 186.63906158 252.84564397 186.63872728 247.43849292 186.62535045 C242.52859848 186.61329526 237.6189108 186.61480716 232.70901989 186.62758007 C230.93504109 186.62973938 229.16104754 186.62676706 227.38708766 186.61829427 C224.99374005 186.60757949 222.60114166 186.6150719 220.20781869 186.62740451 C219.16496264 186.61611456 219.16496264 186.61611456 218.10103879 186.60459654 C214.47645042 186.62595558 214.47645042 186.62595558 211.32478998 188.22959221 Z " fill="#FCFCFC" transform="translate(0,0)"/>
<path d="M0 0 C1.01346528 -0.00865438 2.02693056 -0.01730876 3.07110691 -0.02622539 C6.4717008 -0.04783989 9.87066337 -0.02650741 13.27124023 -0.00532532 C15.7071918 -0.01181737 18.14313769 -0.02087756 20.57907104 -0.03231812 C26.51119579 -0.05302893 32.44289019 -0.04566728 38.37497783 -0.02481725 C43.19607506 -0.00853292 48.01704371 -0.00433373 52.83816528 -0.00878334 C53.52433381 -0.00941402 54.21050233 -0.01004469 54.91746384 -0.01069448 C56.31140355 -0.01204053 57.70534322 -0.01342011 59.09928286 -0.01483283 C72.17024561 -0.02676979 85.24095006 -0.00270328 98.311854 0.03418525 C109.52724873 0.06507832 120.74234607 0.06744937 131.95776367 0.04838562 C144.98191868 0.0262729 158.00590698 0.0201298 171.0300703 0.04070824 C172.41888108 0.04287118 173.80769187 0.04502028 175.19650269 0.04715538 C175.87982353 0.04822175 176.56314438 0.04928811 177.26717192 0.05038679 C182.08245243 0.05685619 186.89764716 0.05209054 191.71292114 0.04313087 C198.19400461 0.03149432 204.67469323 0.04666253 211.1557045 0.07987404 C213.53695409 0.08809611 215.9182504 0.08777996 218.2994957 0.07839584 C221.54512933 0.06700829 224.78916225 0.08628745 228.03466797 0.11352539 C228.98164834 0.1030539 229.92862871 0.09258241 230.90430546 0.08179361 C235.47105883 0.15341087 237.38801808 0.2587154 241.07875061 3.17027569 C243.77696447 6.76806008 244.13669471 8.44503585 244.07983398 12.88017273 C244.07081055 13.79025085 244.06178711 14.70032898 244.05249023 15.63798523 C244.04088867 16.3366571 244.02928711 17.03532898 244.01733398 17.75517273 C244.63949992 17.75504472 245.26166586 17.7549167 245.90268531 17.75478481 C298.74306616 17.74392111 351.58344711 17.73351261 404.42382812 17.72343445 C405.9932541 17.72313506 405.9932541 17.72313506 407.59438566 17.72282961 C519.69658522 17.70145664 631.7987848 17.68301001 743.90098572 17.67048645 C746.39085425 17.67020755 748.88072277 17.66992865 751.3705913 17.66964974 C803.63268017 17.66380447 855.89476908 17.65837103 908.15685804 17.65341337 C934.4095283 17.65092257 960.66219855 17.64835262 986.9148688 17.64570785 C990.87500451 17.64530935 994.83514023 17.64491311 998.79527594 17.64451697 C1059.7814663 17.63839644 1120.76765585 17.63057775 1181.75384521 17.61784363 C1183.06527177 17.61756983 1184.37669832 17.61729603 1185.72786507 17.61701394 C1206.87217205 17.61258915 1228.016479 17.60802195 1249.16078594 17.60343585 C1310.05708531 17.5902299 1370.95338406 17.57807566 1431.84968472 17.57289314 C1433.10176558 17.57278607 1434.35384644 17.572679 1435.64386915 17.57256869 C1463.12898916 17.57023725 1490.61410917 17.5684475 1518.09922924 17.56717076 C1529.15804062 17.56664751 1540.216852 17.56604627 1551.27566338 17.56541824 C1552.48600784 17.56535139 1553.69635231 17.56528453 1554.94337388 17.56521565 C1593.95145371 17.56302221 1632.95952899 17.55447817 1671.96760699 17.54260831 C1711.25673797 17.53068197 1750.54586453 17.52497336 1789.83499737 17.52792475 C1795.26272913 17.52833092 1800.6904609 17.52866568 1806.11819267 17.52895737 C1807.18219503 17.52901713 1808.24619739 17.52907689 1809.34244224 17.52913846 C1826.19929068 17.52990016 1843.05612977 17.52392737 1859.91297566 17.515153 C1876.4833441 17.50666588 1893.05370041 17.50529074 1909.62407 17.5115091 C1919.34202955 17.51494073 1929.05995063 17.51288604 1938.7779057 17.50273873 C1945.23227003 17.49654509 1951.68660685 17.49761007 1958.14097032 17.50457058 C1961.79962562 17.50831284 1965.45820609 17.50898617 1969.11685562 17.50070224 C2004.08909616 17.42650468 2031.81730605 22.23723352 2058.32202148 47.00517273 C2077.08255756 66.14635737 2086.38864556 90.8147173 2086.27033365 117.51499897 C2086.27338674 118.64253147 2086.27643984 119.77006397 2086.27958545 120.93176413 C2086.28736717 124.70274742 2086.28096064 128.47356958 2086.27460289 132.24455357 C2086.27618694 134.990005 2086.28078292 137.7354496 2086.28522736 140.48089769 C2086.29331544 146.46506492 2086.29399533 152.44919739 2086.28981547 158.43336809 C2086.28359238 167.39200012 2086.28889795 176.35060034 2086.29641289 185.30923006 C2086.30887849 200.57864501 2086.31182539 215.84804861 2086.30957794 231.11746788 C2086.30732908 246.59138477 2086.30939704 262.06529204 2086.31672287 277.53920746 C2086.31718218 278.51659768 2086.31764148 279.49398791 2086.31811471 280.50099602 C2086.31999799 284.48177532 2086.32190936 288.46255461 2086.32385709 292.44333388 C2086.34414693 333.97271163 2086.3502691 375.50208399 2086.35144131 417.03146613 C2086.3515708 421.50177527 2086.35170668 425.97208441 2086.35184813 430.44239354 C2086.35188213 431.55170623 2086.35191614 432.66101892 2086.35195118 433.80394715 C2086.35276805 458.38469914 2086.35714773 482.96545011 2086.36215982 507.54620155 C2086.36421652 517.66726481 2086.36619658 527.78832808 2086.36819232 537.90939134 C2086.36852408 539.58682122 2086.36852408 539.58682122 2086.36886255 541.29813856 C2086.38151114 605.38354563 2086.38976074 669.46895202 2086.38884544 733.55436039 C2086.38881389 735.9527638 2086.38878241 738.35116721 2086.38875103 740.74957062 C2086.38860426 751.57820377 2086.38842792 762.40683693 2086.38824326 773.23547008 C2086.38816101 778.06424915 2086.38808072 782.89302822 2086.38800063 787.72180729 C2086.38795984 790.13869847 2086.3879178 792.55558965 2086.38787451 794.97248084 C2086.386514 871.39866925 2086.40114893 947.82483912 2086.42895508 1024.25102234 C2086.4359571 1043.50680823 2086.44289601 1062.76259413 2086.44948387 1082.01838017 C2086.45009249 1083.79685381 2086.45009249 1083.79685381 2086.45071341 1085.61125622 C2086.46314309 1122.15321594 2086.47067447 1158.69517414 2086.47319984 1195.23713589 C2086.47327975 1196.3843868 2086.47335965 1197.53163771 2086.47344197 1198.7136538 C2086.47514851 1223.89844537 2086.47567092 1249.08323685 2086.47510122 1274.26802846 C2086.47490825 1283.27958969 2086.47480416 1292.29115091 2086.47474376 1301.30271214 C2086.47472793 1303.54456603 2086.47470752 1305.78641993 2086.47468251 1308.02827382 C2086.47432986 1343.75069185 2086.4857261 1379.47309401 2086.50299014 1415.19550748 C2086.52028988 1451.17464891 2086.52467264 1487.15376836 2086.5114675 1523.13291219 C2086.50964293 1528.10571828 2086.50795637 1533.0785244 2086.50635147 1538.05133057 C2086.50587121 1539.51352292 2086.50587121 1539.51352292 2086.50538124 1541.00525452 C2086.5006771 1556.43386683 2086.50938607 1571.86244112 2086.52369384 1587.29104628 C2086.53748518 1602.46592885 2086.53697609 1617.64075533 2086.52130957 1632.81563668 C2086.51255371 1641.70916241 2086.51467331 1650.60252285 2086.53304314 1659.49603485 C2086.54415842 1665.40944139 2086.54065213 1671.32272508 2086.52547758 1677.23612224 C2086.51728916 1680.58394522 2086.51733779 1683.93118113 2086.53097896 1687.27902459 C2086.63097716 1713.58723923 2083.24729864 1737.24667751 2067.01733398 1758.75517273 C2066.31737305 1759.70005554 2065.61741211 1760.64493835 2064.89624023 1761.61845398 C2049.23352853 1781.80408778 2025.16763256 1794.55491507 2000.01733398 1797.75517273 C1997.8853603 1797.83992444 1995.75123304 1797.87997089 1993.61757547 1797.87984389 C1991.73792327 1797.88337324 1991.73792327 1797.88337324 1989.8202983 1797.88697388 C1988.43895572 1797.88452733 1987.05761329 1797.88198973 1985.67627102 1797.87937123 C1984.19350464 1797.88023722 1982.71073847 1797.88154188 1981.22797281 1797.88324421 C1977.13664065 1797.88666261 1973.04533275 1797.88382854 1968.95400182 1797.88001018 C1964.49270544 1797.87695128 1960.03141204 1797.87970341 1955.5701156 1797.88171706 C1947.71542938 1797.88445596 1939.8607504 1797.8834554 1932.00606454 1797.88005591 C1920.24739179 1797.87498668 1908.48872422 1797.87568158 1896.73005077 1797.87752249 C1876.69241778 1797.88049162 1856.6547877 1797.87871164 1836.61715508 1797.8743782 C1816.30348553 1797.87000439 1795.98981749 1797.86780512 1775.67614746 1797.86828041 C1774.39446091 1797.8683091 1773.11277436 1797.8683378 1771.79224882 1797.86836736 C1765.25724949 1797.86852373 1758.72225015 1797.86871568 1752.18725082 1797.86892019 C1738.78761397 1797.86931893 1725.38797711 1797.86938457 1711.98834026 1797.86930549 C1710.97683802 1797.86929987 1710.97683802 1797.86929987 1709.94490139 1797.86929414 C1676.69013053 1797.86907988 1643.43536023 1797.86511124 1610.18058968 1797.86090279 C1598.47191088 1797.85942362 1586.76323208 1797.85796228 1575.05455327 1797.85656667 C1573.96279573 1797.85643652 1573.96279573 1797.85643652 1572.84898248 1797.85630374 C1539.13987245 1797.85230707 1505.43076245 1797.85087496 1471.72165221 1797.8501007 C1469.51732025 1797.85004994 1467.31298829 1797.84999797 1465.10865633 1797.84994569 C1451.81659621 1797.8496316 1438.52453609 1797.84934423 1425.23247597 1797.84908772 C1392.18772902 1797.84844886 1359.14298207 1797.84748939 1326.09823513 1797.84631252 C1325.34593643 1797.84628589 1324.59363773 1797.84625926 1323.81854211 1797.84623182 C1275.09011582 1797.84450411 1226.36168973 1797.84145646 1177.63326359 1797.83730412 C1176.8552211 1797.83723783 1176.0771786 1797.83717154 1175.27555907 1797.83710324 C1151.59113678 1797.83508253 1127.9067145 1797.83296416 1104.22229222 1797.83082667 C1078.01249332 1797.82846171 1051.80269442 1797.8261134 1025.59289551 1797.82383728 C1024.41069431 1797.82373453 1024.41069431 1797.82373453 1023.20461025 1797.82362971 C948.35472677 1797.81712974 873.50484323 1797.81331878 798.65495955 1797.81020349 C795.484721 1797.81007135 792.31448245 1797.80993843 789.1442439 1797.80980548 C759.97110478 1797.80858208 730.79796567 1797.80739025 701.62482655 1797.80623806 C700.84908892 1797.80620742 700.07335128 1797.80617678 699.27410644 1797.80614521 C696.92538154 1797.80605245 694.57665664 1797.8059597 692.22793174 1797.80586695 C628.7753525 1797.80336107 565.32277327 1797.80057987 501.87019405 1797.79762031 C499.63137624 1797.79751596 497.39255844 1797.79741181 495.15374063 1797.79730774 C422.43671749 1797.79392638 349.71969441 1797.79004912 91.77148438 1797.77104187 C90.51226442 1797.77094193 89.25304446 1797.770842 87.95566632 1797.77073904 C24.97622219 1797.76573842 -38.00322192 1797.76056436 -100.98266602 1797.75517273 C-100.8956543 1799.40066101 -100.8956543 1799.40066101 -100.80688477 1801.07939148 C-100.75996914 1802.53377587 -100.71447091 1803.98820647 -100.67016602 1805.44267273 C-100.62827148 1806.1639032 -100.58637695 1806.88513367 -100.54321289 1807.6282196 C-100.44695558 1811.84428966 -100.62206753 1813.30263218 -103.35724831 1816.73520404 C-106.15464741 1818.8874934 -107.26611825 1819.38304999 -110.72631836 1819.39682007 C-111.65152283 1819.41236435 -112.57672729 1819.42790863 -113.52996826 1819.44392395 C-115.03409271 1819.43109879 -115.03409271 1819.43109879 -116.56860352 1819.41801453 C-118.16699066 1819.43356636 -118.16699066 1819.43356636 -119.79766846 1819.44943237 C-123.31806001 1819.47652448 -126.83720781 1819.46683577 -130.35766602 1819.45439148 C-132.80477242 1819.46029897 -135.25187594 1819.46754508 -137.69897461 1819.47607422 C-142.82689474 1819.48795871 -147.95438094 1819.48123883 -153.08227539 1819.46195984 C-159.65679432 1819.43906806 -166.23002134 1819.46585521 -172.80441284 1819.5070219 C-177.85734865 1819.53258381 -182.90997467 1819.53002432 -187.96295166 1819.5191288 C-190.38707655 1819.51764074 -192.81122501 1819.52534775 -195.23529053 1819.54237938 C-198.62323634 1819.56231932 -202.00888886 1819.54399082 -205.39672852 1819.51567078 C-206.39947815 1819.52938721 -207.40222778 1819.54310364 -208.43536377 1819.55723572 C-215.01689566 1819.44716144 -215.01689566 1819.44716144 -217.72789001 1817.50469398 C-220.69582578 1814.17382126 -221.53087989 1811.33323647 -221.42211914 1806.89579773 C-221.35927734 1805.89806335 -221.35927734 1805.89806335 -221.29516602 1804.88017273 C-221.26132813 1803.84763367 -221.26132813 1803.84763367 -221.22680664 1802.79423523 C-221.16845091 1801.11359028 -221.07878673 1799.4340812 -220.98266602 1797.75517273 C-225.27266602 1797.75517273 -229.56266602 1797.75517273 -233.98266602 1797.75517273 C-233.8956543 1799.40066101 -233.8956543 1799.40066101 -233.80688477 1801.07939148 C-233.75996914 1802.53377587 -233.71447091 1803.98820647 -233.67016602 1805.44267273 C-233.62827148 1806.1639032 -233.58637695 1806.88513367 -233.54321289 1807.6282196 C-233.52709961 1808.33398132 -233.51098633 1809.03974304 -233.49438477 1809.76689148 C-233.46820068 1810.4110199 -233.4420166 1811.05514832 -233.41503906 1811.71879578 C-234.38163056 1815.18646875 -236.16738539 1816.55613115 -238.98266602 1818.75517273 C-242.30704237 1819.49627684 -245.57058976 1819.43007448 -248.96533203 1819.39009094 C-249.97879731 1819.3978909 -250.99226259 1819.40569085 -252.03643894 1819.41372716 C-255.43685173 1819.43369167 -258.83615091 1819.41786432 -262.23657227 1819.40214539 C-264.67252253 1819.40891948 -267.10846767 1819.41782143 -269.54440308 1819.42869568 C-275.47647129 1819.44914875 -281.40824966 1819.44612682 -287.34030986 1819.43163247 C-292.16139875 1819.42034036 -296.98239899 1819.41880918 -301.80349731 1819.42425156 C-302.48966584 1819.42501772 -303.17583436 1819.42578389 -303.88279587 1819.42657327 C-305.27673557 1819.4281719 -306.67067524 1819.42979296 -308.06461489 1819.43143623 C-321.13553997 1819.44569388 -334.20628971 1819.42930083 -347.27718604 1819.40243439 C-358.49257707 1819.38009552 -369.70770934 1819.38397565 -380.9230957 1819.4070282 C-393.94724126 1819.43378601 -406.97123314 1819.44432059 -419.99540234 1819.42896688 C-421.38421311 1819.42737413 -422.7730239 1819.42580228 -424.16183472 1819.42425156 C-424.84515556 1819.42348018 -425.52847641 1819.4227088 -426.23250395 1819.42191405 C-431.04779122 1819.41759697 -435.862981 1819.42488372 -440.67825317 1819.43664932 C-447.15932013 1819.45213701 -453.64001309 1819.44110996 -460.12103653 1819.41217804 C-462.50229198 1819.40555605 -464.88358851 1819.40748375 -467.26482773 1819.41849136 C-470.51044487 1819.43211355 -473.75448398 1819.41506947 -477 1819.39009094 C-477.94698037 1819.40124455 -478.89396074 1819.41239816 -479.86963749 1819.42388976 C-484.17663294 1819.35939647 -486.40842755 1819.1288533 -490.08705139 1816.73502159 C-492.59608395 1812.79089828 -492.56013507 1810.00421688 -492.29516602 1805.44267273 C-492.27260742 1804.70210632 -492.25004883 1803.96153992 -492.22680664 1803.1985321 C-492.16824751 1801.38319916 -492.07857488 1799.56891592 -491.98266602 1797.75517273 C-492.6088857 1797.75669161 -493.23510538 1797.75821049 -493.88030142 1797.7597754 C-531.04919568 1797.84941519 -568.21807388 1797.91798324 -605.38705423 1797.95943405 C-609.85650639 1797.96443648 -614.32595833 1797.96961381 -618.79541016 1797.97489929 C-619.6851447 1797.97594853 -620.57487924 1797.97699778 -621.49157543 1797.97807881 C-635.87137961 1797.99545299 -650.2511194 1798.0269741 -664.63088547 1798.06378391 C-679.40135563 1798.10127668 -694.17179222 1798.12342615 -708.94230801 1798.13152671 C-718.04615902 1798.13699725 -727.14982797 1798.1542341 -736.2536229 1798.1868386 C-742.50840525 1798.20808957 -748.76309439 1798.21434901 -755.01791018 1798.20917824 C-758.61903967 1798.20663278 -762.21985252 1798.21035193 -765.82092476 1798.23199463 C-797.10555585 1798.41074802 -822.93207896 1792.15838788 -846.39819336 1770.3235321 C-863.66004343 1753.23722627 -875.11827041 1728.76656312 -875.25023174 1704.3512116 C-875.24580466 1703.31804268 -875.24137758 1702.28487376 -875.23681635 1701.2203967 C-875.23999367 1700.09289112 -875.243171 1698.96538554 -875.24644461 1697.80371313 C-875.25466363 1694.02075844 -875.24865401 1690.23796173 -875.24272823 1686.45500469 C-875.24461534 1683.70566758 -875.24951301 1680.95633762 -875.25426057 1678.20700416 C-875.26301593 1672.2080871 -875.26434257 1666.20920388 -875.26082628 1660.21028199 C-875.25559507 1651.22950612 -875.26185958 1642.2487632 -875.27033976 1633.26799111 C-875.2844473 1617.9615604 -875.28900747 1602.65514 -875.28836823 1587.34870338 C-875.28774649 1571.83524288 -875.29142548 1556.3217924 -875.30034828 1540.80833435 C-875.30090807 1539.82876271 -875.30146786 1538.84919106 -875.3020446 1537.83993543 C-875.30433623 1533.85032038 -875.30665458 1529.86070534 -875.3090079 1525.87109032 C-875.33352446 1484.23915732 -875.34367487 1442.6072284 -875.34853505 1400.97528901 C-875.34905876 1396.49315486 -875.34958459 1392.01102071 -875.35011172 1387.52888656 C-875.35024078 1386.41664345 -875.35036985 1385.30440034 -875.35050282 1384.1584529 C-875.35340791 1359.51603267 -875.35956616 1334.8736136 -875.36620904 1310.23119415 C-875.36893249 1300.0855761 -875.37156355 1289.93995803 -875.37419468 1279.79433995 C-875.37448559 1278.67334391 -875.37477651 1277.55234787 -875.37507624 1276.39738225 C-875.39170074 1212.15134419 -875.40355665 1147.90530669 -875.40598965 1083.65926647 C-875.40608427 1081.25458727 -875.40617928 1078.84990807 -875.40627468 1076.44522887 C-875.40670243 1065.58821022 -875.4071078 1054.73119156 -875.40751304 1043.87417291 C-875.40769464 1039.03271924 -875.40787953 1034.19126556 -875.4080651 1029.34981189 C-875.40815713 1026.92657556 -875.40824753 1024.50333924 -875.4083363 1022.08010291 C-875.41115043 945.46307338 -875.43287535 868.84607017 -875.46972656 792.22904968 C-875.49720134 735.09557563 -875.52308656 677.96210661 -875.52967167 620.82862568 C-875.52980511 619.67848386 -875.52993854 618.52834205 -875.53007602 617.34334745 C-875.53294839 592.09445571 -875.53436559 566.84556408 -875.53443423 541.59667218 C-875.53447392 532.56198907 -875.53463087 523.52730596 -875.53484875 514.49262285 C-875.5349024 512.24501667 -875.53495052 509.99741049 -875.53499308 507.7498043 C-875.53573647 471.93999132 -875.55140049 436.13020429 -875.57460438 400.32039942 C-875.59787464 364.24929887 -875.60510034 328.17823172 -875.59042352 292.10712561 C-875.5883959 287.12055805 -875.58654194 282.13399045 -875.58479118 277.14742279 C-875.58444113 276.16993649 -875.58409107 275.19245019 -875.58373041 274.18534309 C-875.5786475 258.71955418 -875.59033283 243.25382546 -875.60903574 227.78804894 C-875.62708441 212.57325135 -875.62723621 197.35854019 -875.60847342 182.14374254 C-875.59801217 173.22890767 -875.60111914 164.31433143 -875.62459217 155.39951988 C-875.6388297 149.46943616 -875.6347364 143.53954272 -875.61611068 137.60947174 C-875.60607271 134.2537024 -875.60627485 130.8988475 -875.62354623 127.54304838 C-875.75657823 99.85310643 -871.1695255 75.39126419 -852.98266602 53.75517273 C-852.29688477 52.9069696 -851.61110352 52.05876648 -850.90454102 51.18486023 C-833.54036244 30.6694048 -809.35435801 20.30690618 -782.98266602 17.75517273 C-778.36573449 17.50972252 -773.76548583 17.48871401 -769.14280796 17.50907707 C-767.82882931 17.50676938 -766.51485065 17.50446169 -765.16105446 17.50208408 C-761.54578262 17.49601167 -757.93062525 17.50224074 -754.31536204 17.51064034 C-750.37031219 17.51756314 -746.42527291 17.51275688 -742.48022074 17.50948536 C-735.57689011 17.5053534 -728.67359408 17.50859882 -721.77026749 17.51676178 C-711.50538842 17.52886581 -701.24053102 17.52943024 -690.97564611 17.5276778 C-673.70583961 17.52505397 -656.43604845 17.53171775 -639.16624641 17.54371262 C-622.07207221 17.55555501 -604.9779044 17.5632462 -587.88372612 17.56541824 C-586.82004289 17.56555572 -585.75635966 17.5656932 -584.6604436 17.56583485 C-579.25832349 17.56651153 -573.85620338 17.56711429 -568.45408326 17.5676886 C-530.21140923 17.57188712 -491.96874355 17.5853554 -453.72607422 17.60429382 C-416.57861373 17.62266862 -379.43115553 17.63683294 -342.28369141 17.64530945 C-341.13822936 17.6455725 -339.99276731 17.64583555 -338.81259429 17.64610658 C-327.30917746 17.64874366 -315.80576062 17.65129528 -304.30234376 17.6537843 C-280.86948536 17.65885644 -257.4366271 17.66449894 -234.00376892 17.67048645 C-232.92641278 17.67076103 -231.84905663 17.67103561 -230.73905333 17.67131851 C-158.82025409 17.68971343 -86.90145948 17.72140309 -14.98266602 17.75517273 C-15.00443151 17.00334342 -15.02619701 16.2515141 -15.04862207 15.47690209 C-15.06555079 14.48881262 -15.08247951 13.50072316 -15.09992123 12.48269159 C-15.12168673 11.50398727 -15.14345222 10.52528296 -15.16587728 9.51692094 C-14.98171888 6.74089554 -14.68381346 5.36966966 -13.10658264 3.11487103 C-8.71261494 -0.20417982 -5.37825075 -0.07988856 0 0 Z M-808.65787604 83.98476494 C-810.37490284 86.27934572 -810.35765219 87.60389384 -810.35762485 90.4557108 C-810.36489475 91.43079165 -810.37216465 92.4058725 -810.37965484 93.41050125 C-810.37236448 94.48721 -810.36507412 95.56391874 -810.35756284 96.67325503 C-810.36164556 97.81917377 -810.36572828 98.96509251 -810.36993472 100.14573606 C-810.3782796 103.35117839 -810.37305527 106.55627998 -810.36232078 109.76170505 C-810.35392494 113.25257206 -810.36290342 116.74340051 -810.36970136 120.234265 C-810.37925071 126.38425423 -810.37754526 132.53416266 -810.36867312 138.68415172 C-810.35544796 147.89089754 -810.35945274 157.0975801 -810.36690498 166.30432952 C-810.37909461 181.99237153 -810.37698286 197.68038298 -810.36719894 213.36842537 C-810.35733161 229.27505007 -810.35395651 245.18165622 -810.35857582 261.08828354 C-810.35886286 262.09152134 -810.3591499 263.09475913 -810.35944563 264.12839808 C-810.36063702 268.21416717 -810.36187616 272.29993625 -810.36317554 276.38570532 C-810.3752879 314.47665021 -810.37272832 352.56758097 -810.36098671 390.65852547 C-810.34968614 427.37279469 -810.34369716 464.08705762 -810.34517479 500.80132866 C-810.34526019 503.10440339 -810.34534507 505.40747812 -810.34542943 507.71055285 C-810.34577725 516.96498475 -810.34616234 526.21941665 -810.346595 535.47384854 C-810.3477898 561.34583392 -810.34797145 587.21781925 -810.34739208 613.08980465 C-810.34736606 614.26807907 -810.34734003 615.44635349 -810.34731322 616.6603332 C-810.34641418 654.22090377 -810.34111308 691.78147237 -810.33268452 729.34204197 C-810.33241133 730.56078608 -810.33213814 731.7795302 -810.33185667 733.03520595 C-810.32740267 752.82847641 -810.32268805 772.6217468 -810.31795778 792.41501719 C-810.29921136 870.9264355 -810.29279365 949.43784418 -810.29833984 1027.94926453 C-810.29868683 1032.91056629 -810.29903244 1037.87186806 -810.29937813 1042.83316983 C-810.29946374 1044.0598229 -810.29954934 1045.28647597 -810.29963754 1046.55030035 C-810.30058362 1060.13428258 -810.30149534 1073.71826481 -810.3023653 1087.30224705 C-810.30244422 1088.52033531 -810.30252314 1089.73842358 -810.30260445 1090.99342361 C-810.30682391 1156.70554811 -810.30152578 1222.41767153 -810.29285401 1288.12979549 C-810.29255073 1290.44547963 -810.29224783 1292.76116378 -810.29194531 1295.07684792 C-810.29179572 1296.22157951 -810.29164613 1297.36631111 -810.29149201 1298.54573154 C-810.29119058 1300.85524992 -810.29088959 1303.1647683 -810.29058904 1305.47428668 C-810.28984017 1311.22815369 -810.28908418 1316.98202069 -810.28831287 1322.7358877 C-810.28496125 1347.9831995 -810.28289704 1373.23051051 -810.28424859 1398.47782254 C-810.2843394 1400.18638106 -810.2843394 1400.18638106 -810.28443204 1401.92945591 C-810.28474404 1407.66493069 -810.28507746 1413.40040547 -810.28541837 1419.13588025 C-810.28786589 1460.53592952 -810.28383762 1501.93596943 -810.26820836 1543.33601613 C-810.26669833 1547.4084984 -810.2652183 1551.48098069 -810.26376152 1555.55346298 C-810.26340078 1556.55296266 -810.26304004 1557.55246235 -810.26266837 1558.5822499 C-810.25711749 1574.45106109 -810.25827478 1590.31986447 -810.26216636 1606.18867585 C-810.26584291 1621.76733744 -810.26242725 1637.34598382 -810.25130214 1652.92464203 C-810.2449803 1662.07430694 -810.24419515 1671.22393307 -810.25136175 1680.37359759 C-810.25556835 1686.43505832 -810.25263878 1692.49648729 -810.24367711 1698.55794282 C-810.23878783 1702.00376394 -810.23713124 1705.44950639 -810.24419249 1708.89532552 C-810.25010929 1712.58444143 -810.24395558 1716.27333598 -810.23451501 1719.9624396 C-810.23917836 1721.04153908 -810.24384171 1722.12063857 -810.24864637 1723.23243804 C-810.24362377 1724.20506039 -810.23860116 1725.17768274 -810.23342635 1726.17977849 C-810.23327844 1727.02170115 -810.23313053 1727.86362382 -810.23297814 1728.73105929 C-810.16517163 1730.9826523 -810.16517163 1730.9826523 -807.98266602 1732.75517273 C-805.38571493 1732.95202278 -802.89549562 1733.02195307 -800.2973344 1733.0054604 C-799.08455133 1733.00960166 -799.08455133 1733.00960166 -797.8472676 1733.01382658 C-795.10135818 1733.02071166 -792.35566944 1733.01317992 -789.60976362 1733.00587106 C-787.62445577 1733.00785148 -785.63914863 1733.01070928 -783.65384316 1733.01436995 C-778.14143831 1733.02194444 -772.62910318 1733.01690313 -767.11670006 1733.00999005 C-761.11877563 1733.00465543 -755.12086179 1733.0108779 -749.12293845 1733.01566374 C-738.55127324 1733.02247722 -727.97963117 1733.02183298 -717.40796715 1733.01629665 C-705.99756523 1733.01036105 -694.58717505 1733.00880105 -683.17677206 1733.01254508 C-682.45470674 1733.01277926 -681.73264141 1733.01301344 -680.98869532 1733.01325472 C-677.30225456 1733.01446965 -673.61581382 1733.01575414 -669.92937309 1733.01706194 C-642.96320724 1733.02647521 -615.99704843 1733.02596439 -589.03088188 1733.02050018 C-561.68597194 1733.01498903 -534.34106693 1733.01381339 -506.99615669 1733.01797485 C-506.13481798 1733.01810388 -505.27347926 1733.01823291 -504.38603937 1733.01836585 C-496.49280851 1733.01954887 -488.59957765 1733.02077666 -480.7063468 1733.02205827 C-460.91037904 1733.02526729 -441.11441122 1733.02777897 -421.3184433 1733.02981901 C-420.41116575 1733.02991281 -419.50388819 1733.03000662 -418.56911738 1733.03010326 C-373.80723212 1733.03466468 -329.04534773 1733.03158681 -284.28346252 1733.02776337 C-282.3217986 1733.02759609 -280.36013467 1733.02742883 -278.39847074 1733.02726158 C-277.42626919 1733.02717866 -276.45406764 1733.02709575 -275.45240543 1733.02701033 C-262.63233597 1733.02591735 -249.81226651 1733.02484414 -236.99219704 1733.02382374 C-235.52236022 1733.02370626 -235.52236022 1733.02370626 -234.02282972 1733.0235864 C-188.65404031 1733.01998707 -143.28525134 1733.02083978 -97.91646187 1733.02268465 C-92.9700348 1733.02288425 -88.02360772 1733.02307524 -83.07718065 1733.0232672 C-68.16877048 1733.02384836 -53.26036031 1733.02444224 -38.35195014 1733.0250624 C7.11254724 1733.02695164 52.57704463 1733.02815199 98.04154205 1733.028759 C99.56012091 1733.02877961 99.56012091 1733.02877961 101.10937812 1733.02880063 C166.69393896 1733.02967838 232.27849931 1733.02747522 297.86306 1733.02305984 C298.91038432 1733.02298961 299.95770863 1733.02291937 301.03677005 1733.02284701 C336.11911127 1733.02049417 371.20145248 1733.0179821 406.28379368 1733.01545375 C512.38091569 1733.0078126 618.47803593 1733.00362555 807.95144737 1733.01568441 C843.02483424 1733.01821075 878.0982211 1733.02070773 913.17160797 1733.02305984 C914.21863543 1733.02313033 915.26566288 1733.02320082 916.34441845 1733.02327345 C981.89398767 1733.02768271 1047.44355655 1733.02964843 1112.99312592 1733.028759 C1114.51120636 1733.02873873 1114.51120636 1733.02873873 1116.05995509 1733.02871806 C1161.49902654 1733.02810467 1206.93809795 1733.02682818 1252.37716936 1733.024938 C1267.27908847 1733.02431887 1282.18100759 1733.02373021 1297.08292671 1733.0231519 C1302.02650341 1733.02295991 1306.97008011 1733.02276521 1311.91365681 1733.02256418 C1357.28472643 1733.02072486 1402.65579546 1733.02019726 1448.02686501 1733.02382374 C1449.0061375 1733.02390168 1449.98540999 1733.02397963 1450.99435741 1733.02405993 C1463.80728451 1733.02508358 1476.62021161 1733.02616886 1489.43313871 1733.02726158 C1490.40457755 1733.0273444 1491.37601639 1733.02742723 1492.37689278 1733.02751257 C1494.33678391 1733.02767969 1496.29667504 1733.02784695 1498.25656617 1733.02801436 C1542.95541488 1733.03182246 1587.65426253 1733.03444039 1632.35311127 1733.02981901 C1633.71224401 1733.02967895 1633.71224401 1733.02967895 1635.09883399 1733.02953606 C1654.8619644 1733.02747623 1674.62509469 1733.02483735 1694.38822494 1733.02162845 C1702.26909151 1733.02035657 1710.14995808 1733.0191554 1718.03082466 1733.01797485 C1718.89051803 1733.01784402 1719.75021141 1733.01771319 1720.63595609 1733.01757839 C1747.94850829 1733.0134547 1775.26105542 1733.015474 1802.57360725 1733.0210084 C1829.44629944 1733.02642659 1856.31898365 1733.025805 1883.19167495 1733.01627166 C1886.86492996 1733.01496923 1890.53818498 1733.01373639 1894.21144003 1733.01254508 C1894.93060612 1733.0123091 1895.64977222 1733.01207313 1896.39073123 1733.01183 C1907.76921342 1733.00827881 1919.14768348 1733.01142894 1930.52616425 1733.01738779 C1941.63551361 1733.02306989 1952.74484323 1733.02157851 1963.85419223 1733.01271418 C1969.77804914 1733.00819336 1975.70186004 1733.00691813 1981.62571504 1733.01434721 C1986.9873327 1733.02101379 1992.34886387 1733.01868399 1997.71047587 1733.0087978 C1999.64582508 1733.00686721 2001.58118115 1733.00836443 2003.51652447 1733.0135158 C2006.12179195 1733.01997764 2008.72674906 1733.01435649 2011.33200237 1733.0054604 C2012.09185435 1733.0102838 2012.85170633 1733.01510721 2013.63458413 1733.02007678 C2017.78098986 1733.12417701 2017.78098986 1733.12417701 2021.01733398 1730.75517273 C2021.31977292 1728.64898242 2021.31977292 1728.64898242 2021.26809432 1726.17977849 C2021.27311693 1725.20715614 2021.27813953 1724.23453379 2021.28331434 1723.23243804 C2021.27865099 1722.15333855 2021.27398764 1721.07423907 2021.26918298 1719.9624396 C2021.27357628 1718.24566496 2021.27357628 1718.24566496 2021.27805833 1716.494208 C2021.28420723 1713.28810349 2021.28129253 1710.08214827 2021.27472251 1706.87604907 C2021.26976152 1703.38613394 2021.27636646 1699.89623814 2021.28152618 1696.40632597 C2021.28899781 1690.2564584 2021.28895366 1684.1066254 2021.28413669 1677.95675571 C2021.27696095 1668.75014702 2021.28124337 1659.5435684 2021.28781804 1650.33696055 C2021.2986777 1634.64949854 2021.2999668 1618.96204852 2021.29611969 1603.27458382 C2021.29224984 1587.3675404 2021.29268831 1571.46050593 2021.29842949 1555.55346298 C2021.29896773 1554.04880005 2021.29896773 1554.04880005 2021.29951684 1552.51373988 C2021.30099168 1548.42852088 2021.30249606 1544.34330189 2021.30403831 1540.25808291 C2021.31969385 1498.73945667 2021.32235003 1457.22083657 2021.31988224 1415.70220791 C2021.31954382 1409.96074612 2021.31922172 1404.21928433 2021.31891656 1398.47782254 C2021.31885552 1397.33751481 2021.31879447 1396.19720707 2021.31873158 1395.02234456 C2021.31746099 1369.7785767 2021.32005867 1344.5348097 2021.32344263 1319.2910421 C2021.32421336 1313.53120247 2021.32495808 1307.77136283 2021.32570764 1302.0115232 C2021.32600933 1299.69996477 2021.32631121 1297.38840634 2021.32661328 1295.07684792 C2021.32676296 1293.93107135 2021.32691264 1292.78529479 2021.32706686 1291.60479772 C2021.32737039 1289.28726885 2021.32767507 1286.96973998 2021.3279809 1284.65221111 C2021.33665741 1218.86888968 2021.3412953 1153.08556899 2021.33703327 1087.30224705 C2021.33695521 1086.08343268 2021.33687716 1084.86461832 2021.33679674 1083.60887019 C2021.33592389 1070.01697006 2021.33499463 1056.42506994 2021.3340461 1042.83316983 C2021.33396059 1041.60595856 2021.33387508 1040.3787473 2021.33378698 1039.11434782 C2021.33326819 1031.6699083 2021.33326819 1031.6699083 2021.33274476 1024.22546878 C2021.32720792 945.71412524 2021.33475269 867.20279345 2021.35351562 788.69145203 C2021.35823759 768.90831537 2021.36291799 749.1251787 2021.36735249 729.34204197 C2021.36762581 728.12402415 2021.36789913 726.90600634 2021.36818073 725.65107889 C2021.37654776 688.13065413 2021.38123129 650.61023034 2021.38206005 613.08980465 C2021.38208642 611.91238864 2021.38211278 610.73497262 2021.38213995 609.52187734 C2021.38268065 583.67892385 2021.38230846 557.83597044 2021.38110023 531.99301698 C2021.38067458 522.74671543 2021.38030947 513.50041388 2021.37997079 504.25411233 C2021.37988549 501.95374125 2021.37979656 499.65337017 2021.37970397 497.35299909 C2021.37825327 460.64921485 2021.38539392 423.94543859 2021.39670794 387.24165627 C2021.40833898 349.26354741 2021.40894256 311.28545282 2021.39686451 273.30734391 C2021.3956126 269.2343238 2021.39440913 265.16130368 2021.39324379 261.08828354 C2021.3929535 260.08865365 2021.3926632 259.08902376 2021.39236411 258.05910206 C2021.3880282 242.19100681 2021.39378778 226.32293175 2021.40368398 210.45483967 C2021.41318991 194.87516853 2021.41208846 179.29552871 2021.39947776 163.71585941 C2021.39239389 154.56666942 2021.39362729 145.41756917 2021.40682614 136.26838544 C2021.41476154 130.20595645 2021.41198216 124.14359597 2021.4001765 118.08117337 C2021.39377528 114.63558872 2021.392205 111.19018245 2021.40374371 107.74460718 C2021.41363351 104.05398548 2021.40537981 100.36385548 2021.39223081 96.67325503 C2021.39952117 95.59654628 2021.40681153 94.51983754 2021.41432281 93.41050125 C2021.40705291 92.43542041 2021.39978302 91.46033956 2021.39229282 90.4557108 C2021.39230492 89.19278485 2021.39230492 89.19278485 2021.39231728 87.90434525 C2020.92617347 85.23269698 2020.18632329 84.34719541 2018.01733398 82.75517273 C2015.53119397 82.46261246 2013.29593412 82.3556593 2010.8095153 82.38257724 C2010.06542151 82.37874298 2009.32132773 82.37490872 2008.55468565 82.37095827 C2006.03629097 82.3616971 2003.51845016 82.37400096 2001.00007343 82.38602924 C1999.17858872 82.38381211 1997.35710521 82.38027827 1995.53562531 82.37553975 C1990.49213268 82.36628521 1985.4488199 82.37589702 1980.4053406 82.38837415 C1974.93295821 82.39863624 1969.46059491 82.39157213 1963.98820895 82.38664168 C1954.38462807 82.38040579 1944.78110281 82.3853767 1935.17752838 82.3975563 C1920.89723991 82.41561695 1906.6169867 82.41656786 1892.33668889 82.41393034 C1868.31821226 82.40970426 1844.29975939 82.42001277 1820.28129005 82.43798256 C1796.48975316 82.4557401 1772.69822644 82.46730585 1748.90668297 82.470541 C1747.7990396 82.47069585 1747.7990396 82.47069585 1746.6690196 82.47085384 C1739.92477042 82.47179341 1733.18052123 82.47265649 1726.43627203 82.47342776 C1709.66960247 82.47534613 1692.90293315 82.47822422 1676.13626385 82.48175335 C1675.37268288 82.4819133 1674.60910192 82.48207325 1673.82238214 82.48223805 C1636.66381082 82.49010571 1599.50524622 82.50902965 1562.34667969 82.52885437 C1549.44919846 82.53572925 1536.5517172 82.54255529 1523.65423584 82.54917908 C1522.85435051 82.54958992 1522.05446519 82.55000077 1521.23034091 82.55042407 C1484.05700606 82.56945058 1446.88367005 82.58063123 1409.71033161 82.58978346 C1407.29749353 82.59037766 1404.88465544 82.59097523 1402.47181735 82.5915735 C1386.48203192 82.59553279 1370.49224646 82.59935675 1354.50246098 82.60309008 C1322.68580209 82.6105199 1290.86914342 82.61874496 1259.05248487 82.62751622 C1257.53723689 82.62793394 1256.0219889 82.6283511 1254.50674091 82.62876771 C1172.69444618 82.6512669 1090.88215844 82.6875209 952.01733398 82.75517273 C952.00275146 83.81317078 951.98816895 84.87116882 951.97314453 85.96122742 C951.91451909 89.94250302 951.83729969 93.92325033 951.75488281 97.90409851 C951.72193202 99.61657543 951.69381057 101.32915318 951.67089844 103.04179382 C951.45505991 118.7566758 950.60060297 132.00344785 939.01733398 143.79032898 C926.18408288 154.90147102 909.65608315 153.32254376 893.76939392 153.25637817 C891.18459838 153.26027356 888.59980498 153.2659159 886.01501662 153.27314907 C880.40734303 153.28601188 874.79982775 153.28412349 869.19215393 153.27236938 C860.85324587 153.25493856 852.51446157 153.26050395 844.17554699 153.2705363 C829.28014112 153.28770624 814.38480897 153.2822015 799.48940465 153.26717911 C786.45468197 153.25411822 773.41998485 153.24893312 760.38525581 153.25149727 C759.08742886 153.25173789 759.08742886 153.25173789 757.76338317 153.25198338 C754.25103613 153.25264698 750.73868909 153.2533494 747.22634207 153.25410872 C714.29086713 153.26112977 681.35543717 153.24565128 648.41997368 153.21948526 C619.16815193 153.19636887 589.91637961 153.1909831 560.66455078 153.20121765 C553.17308269 153.20381973 545.6816146 153.20640476 538.19014645 153.20881557 C536.80664966 153.20926175 536.80664966 153.20926175 535.39520345 153.20971693 C510.94090419 153.21733397 486.48660896 153.21091776 462.0323115 153.20011955 C459.40062019 153.19897177 456.76892888 153.19782859 454.13723756 153.19669273 C452.39149998 153.19593748 450.64576239 153.19517184 448.90002481 153.19439572 C435.87381028 153.18874058 422.84760855 153.19006518 409.82139397 153.19462395 C395.00870593 153.1997343 380.19606575 153.19386744 365.38338964 153.17372965 C357.09633618 153.16275284 348.80937681 153.1599413 340.5223205 153.16901818 C334.3326106 153.17486 328.14301886 153.16499228 321.95332891 153.14901853 C319.45083175 153.14497407 316.94832026 153.14597385 314.44582843 153.1525374 C311.04172148 153.16070135 307.6381422 153.15035787 304.23406887 153.13548946 C303.26498881 153.14222711 302.29590874 153.14896477 301.29746261 153.15590659 C289.1778396 153.05369706 279.0356289 150.2303853 270.04858398 141.93876648 C261.91535676 133.40921674 259.93721174 123.34123048 259.70092773 111.95439148 C259.66975609 110.69982903 259.66975609 110.69982903 259.63795471 109.41992188 C259.57282365 106.76091852 259.51374448 104.10182045 259.45483398 101.44267273 C259.41161407 99.63472042 259.36799868 97.82677751 259.32397461 96.0188446 C259.21717983 91.59771651 259.11581073 87.17649361 259.01733398 82.75517273 C130.23989936 82.69001732 130.23989936 82.69001732 -45.74308777 82.62814331 C-47.26062923 82.62772496 -48.7781707 82.6273066 -50.29571216 82.62688825 C-82.14739765 82.61812071 -113.99908327 82.6099705 -145.8507691 82.6025337 C-161.85027734 82.59879743 -177.84978556 82.59494251 -193.84929375 82.5909754 C-196.26280023 82.59037766 -198.67630671 82.5897833 -201.08981319 82.58918909 C-238.26640028 82.58000619 -275.44298443 82.5682742 -312.61956787 82.54917908 C-313.41925416 82.54876838 -314.21894044 82.54835768 -315.04285964 82.54793454 C-327.93665172 82.5412972 -340.83044369 82.53444646 -353.72423564 82.52756741 C-390.85002155 82.50776343 -427.97580521 82.48953034 -465.10159588 82.48175335 C-466.24613288 82.48151244 -466.24613288 82.48151244 -467.41379184 82.48126667 C-484.1616776 82.47776985 -500.90956338 82.47508507 -517.65744939 82.47316978 C-524.39563794 82.47238489 -531.13382647 82.47148303 -537.872015 82.470541 C-538.60949283 82.47044072 -539.34697067 82.47034044 -540.10679631 82.47023712 C-563.89142015 82.46694467 -587.67602721 82.45412094 -611.46064427 82.4363261 C-636.07348656 82.41795628 -660.68631026 82.41012268 -685.29915933 82.4146686 C-699.50242374 82.41695866 -713.70562732 82.41079319 -727.9088808 82.3927801 C-737.38020345 82.38158371 -746.85148596 82.38114392 -756.32281131 82.38967729 C-761.72997446 82.39423431 -767.13702204 82.39390001 -772.5441731 82.38052318 C-777.45406754 82.36846799 -782.36375521 82.36997989 -787.27364613 82.3827528 C-789.04762492 82.38491211 -790.82161848 82.38193979 -792.59557835 82.37346699 C-794.98892597 82.36275222 -797.38152436 82.37024463 -799.77484733 82.38257724 C-800.81770338 82.37128729 -800.81770338 82.37128729 -801.88162722 82.35976927 C-805.5062156 82.38112831 -805.5062156 82.38112831 -808.65787604 83.98476494 Z " fill="#08090A" transform="translate(1019.982666015625,104.24482727050781)"/>
<path d="M0 0 C0.91768158 -0.00686325 1.83536316 -0.0137265 2.78085327 -0.02079773 C5.80921983 -0.03907357 8.83706872 -0.03522704 11.86547852 -0.02954102 C13.97388375 -0.03410246 16.0822875 -0.03940792 18.19068909 -0.04542542 C22.60814456 -0.05435809 27.02541926 -0.05193157 31.44287109 -0.04199219 C37.10007335 -0.0305029 42.75665138 -0.05071291 48.41377163 -0.07990932 C52.76756241 -0.09826723 57.1212035 -0.09797964 61.47502327 -0.0922718 C63.56059711 -0.09211854 65.64618106 -0.09816729 67.73171806 -0.11056328 C70.64966716 -0.12546328 73.5664617 -0.11480315 76.484375 -0.09765625 C77.77271492 -0.1121582 77.77271492 -0.1121582 79.08708191 -0.12695312 C84.45983015 -0.06093797 87.56279251 0.80466819 91.80688477 4.40405273 C94.7830639 8.86832143 94.54694549 13.17130016 93.80688477 18.40405273 C91.87942731 22.30504233 88.87932785 24.92511205 84.80688477 26.40405273 C81.81079412 26.60580898 78.90730505 26.69779104 75.91088867 26.69458008 C74.56384605 26.70465591 74.56384605 26.70465591 73.18959045 26.7149353 C70.22081978 26.73393351 67.25227495 26.73784041 64.28344727 26.73999023 C62.21845405 26.74641685 60.15346175 26.75314511 58.08847046 26.76016235 C53.75923552 26.77213965 49.43008041 26.7758427 45.10083008 26.7746582 C39.5568445 26.77445498 34.01337135 26.80175866 28.46950722 26.83620262 C24.20408788 26.85845382 19.93879221 26.86249629 15.67332077 26.86143875 C13.62960417 26.86379733 11.5858843 26.87263528 9.54222488 26.88810349 C6.68167617 26.90772732 3.82223699 26.90193949 0.96166992 26.88989258 C-0.30097435 26.9067511 -0.30097435 26.9067511 -1.58912659 26.9239502 C-6.94620372 26.86670009 -9.89833798 25.88572332 -14.19311523 22.40405273 C-14.7925293 21.92581055 -15.39194336 21.44756836 -16.00952148 20.95483398 C-18.51500669 17.67206954 -18.39805705 13.39110252 -18.19311523 9.40405273 C-14.2076253 0.97320865 -8.51979635 -0.04454913 0 0 Z " fill="#FBFBFB" transform="translate(1604.193115234375,184.595947265625)"/>
<path d="M0 0 C4.12326498 1.7409341 6.69835882 4.16393137 9 8 C9.62028642 13.58257777 9.22129186 17.22360172 6 22 C2.25183477 25.40742294 -1.68445522 25.56715484 -6.55859375 25.421875 C-11.2423439 24.61252297 -13.60598525 21.90092921 -16.375 18.125 C-17.75785693 13.42328643 -17.57576982 10.06928681 -15.25 5.75 C-10.60767851 0.07605151 -7.25009379 -0.94848897 0 0 Z " fill="#FAFAFA" transform="translate(1569,185)"/>
</svg>
